<?xml version="1.0" encoding="UTF-8"?>
<svg id="_Ñëîé_1" data-name="Ñëîé 1" xmlns="http://www.w3.org/2000/svg" viewBox="0 0 3023.23 1763.69">
  <defs>
    <style>
      .cls-1 {
        fill: #a4d6ff;
      }

      .cls-2 {
        fill: #1c2546;
      }

      .cls-3 {
        fill: #dd8064;
      }

      .cls-4 {
        fill: #f7a52d;
      }

      .cls-5 {
        fill: #f2f3f9;
      }

      .cls-6 {
        fill: #f7572d;
      }

      .cls-7 {
        fill: #cae7f5;
      }

      .cls-8 {
        fill: #f9efef;
      }

      .cls-9 {
        fill: #ffbe1d;
      }

      .cls-10 {
        fill: #090951;
      }

      .cls-11 {
        fill: #fcba15;
      }

      .cls-12 {
        fill: #ffde1a;
      }

      .cls-13 {
        fill: #ffd31a;
      }

      .cls-14 {
        fill: #b0dfff;
      }

      .cls-15 {
        fill: #5184ce;
      }

      .cls-16 {
        fill: #49302a;
      }

      .cls-17 {
        fill: #fff;
      }

      .cls-18 {
        fill: #7575d3;
      }

      .cls-19 {
        fill: #b5afae;
      }

      .cls-20 {
        fill: #ffc71f;
      }

      .cls-21 {
        fill: #ffe266;
      }

      .cls-22 {
        fill: #90d1fc;
      }

      .cls-23 {
        fill: #0f2251;
      }

      .cls-24 {
        fill: #89c9f4;
      }

      .cls-25 {
        fill: #1f2b54;
      }

      .cls-26 {
        fill: #ffda3e;
      }

      .cls-27 {
        fill: #29399b;
      }

      .cls-28 {
        fill: #ffd817;
      }

      .cls-29 {
        fill: #2739a8;
      }

      .cls-30 {
        fill: #fcc730;
      }

      .cls-31 {
        fill: #f8fbff;
      }

      .cls-32 {
        fill: #518ed6;
      }

      .cls-33 {
        fill: #ffee52;
      }

      .cls-34 {
        fill: #c1bab8;
      }

      .cls-35 {
        fill: #91cff9;
      }

      .cls-36 {
        fill: #629ddd;
      }

      .cls-37 {
        fill: #1d5e82;
      }

      .cls-38 {
        fill: #7193d8;
      }

      .cls-39 {
        fill: #fffbab;
      }

      .cls-40 {
        fill: #2f2f7c;
      }

      .cls-41 {
        fill: #fefdfb;
      }

      .cls-42 {
        fill: #c5c5f9;
      }

      .cls-43 {
        fill: #f9be2b;
      }

      .cls-44 {
        fill: #3845b8;
      }

      .cls-45 {
        fill: #c36252;
      }

      .cls-46 {
        fill: #8eb7e8;
      }

      .cls-47 {
        fill: #eb8e6c;
      }

      .cls-48 {
        fill: #283aa5;
      }

      .cls-49 {
        fill: #ff6c3c;
      }

      .cls-50 {
        fill: #d87150;
      }

      .cls-51 {
        fill: #090949;
      }

      .cls-52 {
        fill: #ffdf5a;
      }

      .cls-53 {
        fill: #f4940b;
      }

      .cls-54 {
        fill: #2f40a5;
      }

      .cls-55 {
        fill: #f7b000;
      }

      .cls-56 {
        fill: #fff68a;
      }

      .cls-57 {
        fill: #1c1c70;
      }

      .cls-58 {
        fill: #0c0c60;
      }

      .cls-59 {
        fill: #d0c4c4;
      }

      .cls-60 {
        fill: #4456c1;
      }

      .cls-61 {
        fill: #f7d02d;
      }

      .cls-62 {
        fill: #b3d9e8;
      }
    </style>
  </defs>
  <path class="cls-7" d="M822.7,501.11c202.43,8.41,399.61-83.85,544.19-242.4,281.77-308.99,776.05-314.52,1164.17-74.46,80.46,49.77,264.13,223.36,367.41,482.34,15.41,38.64,161.35,475.72-1.67,820.35-12.67,26.78-125.53,190.88-302.98,211.52-31.91,3.71-1928.42,4.72-1943.62,0C-104.75,1463.93,221.25,476.13,822.7,501.11Z"/>
  <path class="cls-1" d="M455.52,1217.27c-18.45-17.14-178.41-162.28-275.78-84.89-24.26,19.28-51.4,57.75-48.57,92.93,5.5,68.42,119.63,65.38,231.5,123.69,163.74,85.35,227.89,252.73,259.52,304.66l24.66-4.46c6.82-68.61-44.24-295.32-191.32-431.93Z"/>
  <path class="cls-22" d="M455.52,1217.27c-18.45-17.14-178.41-162.27-275.78-84.89-3.07,2.44-6.19,5.19-9.29,8.2,25.3-5.8,55.69-9.28,89.14-5.76,106.53,11.21,170.8,85.64,200.63,120.17,14.45,16.73,86.65,103.04,111.61,253.24,3.75,22.59,6.09,44.56,7.32,65.71,19.23,34.17,32.83,62.95,43.04,79.71l24.66-4.46c6.82-68.61-44.24-295.32-191.32-431.93Z"/>
  <path class="cls-14" d="M252.56,709.45C-4.72,572.68-42.64,735.74,37.54,803.83c41.73,35.44,234.95,129.43,351.28,246.46,221.82,223.15,247.95,506.82,250.25,600.31l7.14-1.29c27.15-138.19,97.52-678.76-393.65-939.86Z"/>
  <path class="cls-1" d="M252.56,709.45c-169.82-90.27-244.07-49.91-251.86,7.54,10.99-11.85,25.73-24.41,44.41-33.02,27.15-12.51,51.63-11.62,75.91-7.48,62.13,10.59,118.41,41.65,185.8,93.26,47.34,36.26,82.93,63.52,124.58,110.51,77.72,87.69,126.25,187.33,149.11,254.12,34.73,101.49,38.47,209.85,28.34,308.62,23.78,91.23,29.23,167.17,30.22,207.59l8.78-1.59c27.1-115.37,84.76-684.38-395.28-939.56Z"/>
  <path class="cls-1" d="M641.67,1457.5c-9.19-74.64-32.52-188.6-91.45-307.67-42.48-85.83-100.42-165.2-167.55-229.52-52.45-50.25-110.89-91.89-173.74-123.78-1.51-.77-3.38.13-4.16,1.99h0c-.77,1.85-.18,3.96,1.32,4.72,62.39,31.66,120.39,72.99,172.45,122.87,66.64,63.85,124.14,142.61,166.29,227.79,58.48,118.15,81.62,231.22,90.74,305.26,2.92,23.73,5.02,47.94,6.25,72.01.1,1.98,1.54,3.35,3.24,3.06,1.7-.29,3.01-2.13,2.91-4.12-1.24-24.27-3.36-48.68-6.3-72.6Z"/>
  <path class="cls-24" d="M416.52,1286.78c-46.29-34.28-97.55-59.4-152.4-74.7-1.52,1.07-2.37,1.68-3.88,2.75-.51,1.95.38,3.88,1.99,4.33,54.26,15.13,104.94,39.97,150.71,73.87,96.25,71.28,150.79,168.1,179.84,237.91.72,1.73,2.54,2.33,4.08,1.34,1.55-1,2.22-3.22,1.5-4.96-29.36-70.57-84.5-168.45-181.83-240.53Z"/>
  <path class="cls-14" d="M655.17,40.18c-93.53-7.59-132.81,150.56-137.17,169.06-34.79,147.4,28.45,310.93,61.55,351.06l17.33-7.56c-1.99-45.84-32.11-177.68,34.66-299.96,45.61-83.54,118.42-129.58,93.12-174.77-13-23.23-46.17-35.94-69.48-37.83Z"/>
  <path class="cls-1" d="M518,209.24c-34.79,147.4,28.45,310.93,61.55,351.06l17.33-7.56c-.64-14.79-4.22-38.54-6.51-68.03-8.11-13.77-15.88-28.52-23.01-44.26-47.46-104.62-38.47-189.03-36.44-205.59,4.18-34.17,13.2-107.81,75.25-159.59,19.49-16.26,39.99-26.85,58.29-33.84-3.21-.59-6.32-1-9.27-1.24-93.53-7.59-132.81,150.56-137.17,169.06Z"/>
  <path class="cls-1" d="M635.77,125.58c-27.95,32.63-49.52,69.91-64.13,110.84-30.72,86.06-24.16,170.57-12.91,227.13.28,1.39,1.64,2.5,3.02,2.48,1.38-.02,2.27-1.16,2-2.55-11.13-55.95-17.62-139.54,12.76-224.65,14.44-40.47,35.78-77.33,63.42-109.61.82-.96.57-2.54-.57-3.55-1.4-.04-2.19-.06-3.59-.09Z"/>
  <g>
    <polygon class="cls-35" points="227.02 329.9 368.04 251.03 606.5 677.35 956.2 678.23 1351.2 1714.37 1171.1 1704.49 837.87 822.75 502.45 822.33 227.02 329.9"/>
    <polygon class="cls-35" points="154.29 394.83 460.88 224.79 201.85 119.16 154.29 394.83"/>
  </g>
  <g>
    <path class="cls-1" d="M2769.94,853.7c-554.68,204.72-519.57,763.17-509.28,858.68.23,2.1,2.94,2.23,3.2.15,8.29-65.95,59-353.48,327.35-553.1,131.55-97.85,337.91-166.23,384.31-195.19,89.15-55.66,70.6-212.48-205.58-110.55Z"/>
    <path class="cls-22" d="M2769.94,853.7c-553.54,204.29-524.72,811.76-509.35,858.09.69,2.08,3.07,2.33,3.34.17,3.98-31.36,17.31-110.73,57.75-206.7,1.71-93.69,18.59-194.93,65.92-286.57,31.15-60.31,92.18-148.8,181.21-223.09,47.72-39.82,86.93-61.73,139.09-90.9,74.25-41.51,134.8-64.88,198.79-68.45,25-1.39,49.82.27,75.7,14.79,17.8,9.98,31.16,23.27,40.82,35.52-.92-54.68-70.97-100.14-253.27-32.86Z"/>
    <path class="cls-24" d="M2807.4,942.13c-.56-1.83-2.34-2.86-3.96-2.29-67.29,23.48-131.3,56.55-190.3,98.31-75.53,53.46-143.6,121.97-196.85,198.12-73.87,105.65-111.19,210.15-129.49,279.21-5.87,22.14-10.96,44.81-15.14,67.45-.34,1.85.75,3.72,2.43,4.16,1.67.44,3.3-.7,3.64-2.54,4.15-22.45,9.2-44.94,15.02-66.9,18.16-68.52,55.18-172.19,128.49-277.03,52.84-75.57,120.39-143.56,195.37-196.62,58.57-41.45,122.11-74.28,188.89-97.58,1.61-.56,2.46-2.48,1.9-4.29h0Z"/>
    <g>
      <path class="cls-1" d="M2503.72,1309.22c-189.15,129.65-265.21,383.37-240.96,404.23.48.41.99.71,1.52.92l9.59-3.6c33.08-28.15,116.89-199.74,307.63-268.49,119.95-43.24,234.76-28.7,248.58-92.3,7.11-32.7-15.63-71.56-37.78-92.13-88.91-82.55-267.89,37.19-288.58,51.38Z"/>
      <path class="cls-22" d="M2503.72,1309.22c-189.15,129.65-265.21,383.37-240.96,404.23.48.41.98.72,1.51.93l9.6-3.6c12.46-10.6,32.11-41.53,61.95-79.67,3.8-19.71,8.82-40.07,15.34-60.88,43.35-138.32,126.65-211.88,143.25-226.09,34.28-29.34,108.14-92.56,217-92.17,34.19.12,64.43,6.49,89.27,14.53-2.76-3.14-5.58-6.04-8.38-8.65-88.91-82.55-267.89,37.19-288.58,51.38Z"/>
      <path class="cls-24" d="M2534.67,1378.41c-106.94,57.64-174.42,143.8-212.58,206.99-.94,1.56-.53,3.71.91,4.81,1.43,1.09,3.34.71,4.28-.84,37.75-62.51,104.5-147.73,210.26-204.73,50.29-27.11,104.44-45.21,161.03-53.85,1.68-.26,2.81-1.97,2.53-3.86-1.4-1.16-2.19-1.81-3.59-2.98-57.21,8.73-111.98,27.05-162.84,54.46Z"/>
    </g>
  </g>
  <g>
    <path class="cls-1" d="M2263.67,125.44c86.27,6.44,103.44,156.17,105.24,173.64,16.45,159.72-87.27,320.36-109.9,317.81-.45-.05-.85-.17-1.2-.34l-2.46-6.68c.12-30.55,55.31-155.92,4.8-287.33-31.77-82.64-92.78-134.99-64.35-172.56,14.61-19.31,46.39-26.16,67.89-24.55Z"/>
    <path class="cls-22" d="M2263.67,125.44c86.27,6.44,103.44,156.17,105.24,173.64,16.45,159.72-87.27,320.37-109.9,317.82-.44-.05-.84-.16-1.2-.33l-2.47-6.68c.04-11.5,7.9-36.45,14.98-70.11,9.03-11.39,17.86-23.72,26.24-37.04,55.68-88.56,57.44-166.77,57.55-182.14.22-31.74.69-100.13-49.83-156.18-15.87-17.6-33.33-30.18-49.21-39.16,3-.08,5.88,0,8.61.19Z"/>
    <path class="cls-24" d="M2271.29,206.03c21.66,33.73,36.95,70.78,45.44,110.16,17.87,82.81,1.9,158.88-15.05,208.82-.42,1.23-1.79,2.05-3.05,1.83-1.26-.22-1.94-1.39-1.52-2.61,16.77-49.4,32.57-124.64,14.89-206.54-8.4-38.94-23.52-75.58-44.94-108.94-.64-.99-.22-2.4.94-3.15,1.28.17,2,.26,3.29.43Z"/>
  </g>
  <g>
    <path class="cls-1" d="M2718.73,85.63c-70.26-50.48-179.59,53.26-192.19,65.5-115.19,111.86-138.87,301.61-119.89,314.18.37.25.76.41,1.14.51l6.18-3.54c19.53-23.49,57.75-155.03,180.87-223.31,77.43-42.94,157.82-43.88,160.15-90.93,1.2-24.19-18.76-49.85-36.26-62.42Z"/>
    <path class="cls-22" d="M2718.73,85.63c-70.26-50.48-179.59,53.26-192.19,65.5-115.19,111.86-138.87,301.61-119.89,314.18.37.25.75.42,1.14.52l6.18-3.54c7.35-8.85,17.36-33.01,33.55-63.36.39-14.53,1.55-29.65,3.68-45.24,14.2-103.64,63.08-164.72,72.87-176.57,20.22-24.47,63.78-77.19,138.51-87.7,23.47-3.3,44.93-1.72,62.87,1.59-2.25-1.98-4.5-3.79-6.72-5.38Z"/>
    <path class="cls-24" d="M2661.13,142.51c-38.26,11.94-73.78,30.52-105.59,55.25-66.89,51.99-103.5,120.56-122.58,169.72-.47,1.21.06,2.72,1.17,3.36,1.11.64,2.37.18,2.84-1.02,18.88-48.63,55.09-116.45,121.24-167.87,31.45-24.45,66.57-42.82,104.41-54.63,1.12-.35,1.71-1.7,1.3-3.02-1.09-.7-1.7-1.09-2.79-1.78Z"/>
  </g>
  <g>
    <path class="cls-14" d="M2967.43,490.84c-62.07-65.09-191.05,23.01-205.96,33.46-118.9,83.26-177.96,240.6-179.88,290.42l17.22,5.64c27.81-34.06,90.36-147.6,216.11-192.49,85.92-30.67,167.37-17.18,178.09-65.64,5.51-24.91-10.11-55.16-25.58-71.38Z"/>
    <path class="cls-1" d="M2761.46,524.29c-118.9,83.26-177.96,240.6-179.88,290.42l17.22,5.64c8.97-10.99,21.56-30.26,38.73-52.83,2.98-15.02,6.83-30.53,11.76-46.34,32.77-105.12,93.05-159.78,105.06-170.33,24.79-21.78,78.21-68.72,155.63-66.18,24.31.8,45.73,6.3,63.28,12.97-1.92-2.46-3.88-4.74-5.84-6.8-62.07-65.09-191.05,23.01-205.96,33.46Z"/>
    <path class="cls-1" d="M2899.08,539.56c-40.81,5.52-80.02,18.43-116.58,38.39-76.87,41.98-126.07,106.62-154.1,154.26-.69,1.17-.43,2.83.58,3.7,1,.86,2.37.62,3.05-.55,27.73-47.13,76.4-111.07,152.41-152.58,36.15-19.74,74.92-32.51,115.28-37.97,1.2-.16,2.03-1.46,1.85-2.9-.98-.92-1.53-1.43-2.51-2.35Z"/>
  </g>
  <ellipse class="cls-62" cx="1636.57" cy="1683.17" rx="1164.14" ry="80.51"/>
  <g>
    <rect class="cls-46" x="2340.44" y="599.19" width="184.76" height="274.39" transform="translate(568.64 2464.3) rotate(-59.67)"/>
    <path class="cls-15" d="M2424.23,722.1l-156.53,24.83,236.83,138.57-55.06-148.66c-4.04-9.99-14.52-16.12-25.24-14.74Z"/>
    <path class="cls-46" d="M2420.56,728.44l-152.86,18.49,236.83,138.57-58.77-142.32c-4.09-9.91-14.57-16.03-25.2-14.75Z"/>
    <path class="cls-15" d="M2416.11,735.99c4.06,10.02,14.53,16.15,25.22,14.78l156.57-24.84-236.83-138.57,55.04,148.62Z"/>
    <path class="cls-46" d="M2419.83,729.68c4.09,9.91,14.57,16.03,25.2,14.75l152.86-18.49-236.83-138.57,58.77,142.32Z"/>
  </g>
  <path class="cls-42" d="M2702.82,499.58l4.15-21.92c9.2-.8,19.4-2.61,28.27-5.7l12.81,18.49c4.14,6.08,12.63,7.69,18.71,3.55l25.51-17.33c6.08-4.14,7.7-12.5,3.55-18.58l-12.47-18.83c6.12-7.12,11.53-15.86,15.64-24.13l21.92,4.15c7.23,1.37,12.27-2.98,13.64-10.21l5.73-30.26c1.37-7.23-1.3-15.41-8.53-16.78l-21.92-4.15c-.8-9.2-2.84-18.16-5.93-27.03l18.37-12.19c6.08-4.14,7.63-12.32,3.49-18.4l-17.36-25.35c-4.14-6.08-12.52-7.62-18.6-3.48l-18.93,12.5c-7.12-6.12-15.96-11.51-24.23-15.62l4.15-21.92c1.37-7.23-2.15-15.67-9.38-17.04l-30.26-5.73c-7.23-1.37-16.24,4.7-17.61,11.93l-4.15,21.92c-9.2.8-18.07,2.86-26.94,5.95l-12.15-18.36c-4.14-6.08-12.3-7.63-18.38-3.48l-25.34,17.36c-6.08,4.14-7.61,12.52-3.47,18.6l12.73,17.7c-6.12,7.12-11.27,14.73-15.38,22.99l-21.92-4.15c-7.23-1.37-16.32,4.58-17.69,11.81l-5.73,30.26c-1.37,7.23,5.35,13.81,12.58,15.18l21.92,4.15c.8,9.2,2.62,19.3,5.71,28.18l-18.48,12.76c-6.08,4.14-7.68,12.61-3.54,18.69l17.33,25.5c4.14,6.08,12.5,7.69,18.58,3.55l17.6-12.71c7.12,6.12,14.63,11.29,22.9,15.41l-4.15,21.92c-1.37,7.23,5.41,12.92,12.64,14.29l30.26,5.73c7.23,1.37,12.98-1.95,14.35-9.17ZM2637.8,356.11c6.46-34.08,39.32-56.48,73.41-50.02,34.08,6.46,56.48,39.32,50.02,73.41-6.46,34.08-39.32,56.48-73.41,50.02-34.08-6.46-56.48-39.32-50.02-73.41Z"/>
  <path class="cls-22" d="M887.44,638.78l3.49-18.4c7.72-.67,16.28-2.19,23.72-4.78l10.75,15.51c3.48,5.1,10.6,6.45,15.7,2.98l21.41-14.54c5.1-3.48,6.46-10.49,2.98-15.6l-10.47-15.81c5.14-5.98,9.68-13.31,13.13-20.25l18.4,3.49c6.07,1.15,10.3-2.5,11.45-8.57l4.81-25.39c1.15-6.07-1.09-12.93-7.16-14.08l-18.4-3.49c-.67-7.72-2.38-15.24-4.98-22.69l15.42-10.23c5.1-3.48,6.4-10.34,2.93-15.44l-14.57-21.28c-3.48-5.1-10.5-6.39-15.61-2.92l-15.89,10.49c-5.98-5.14-13.39-9.66-20.33-13.11l3.49-18.4c1.15-6.07-1.8-13.15-7.87-14.3l-25.39-4.81c-6.07-1.15-13.63,3.94-14.78,10.01l-3.49,18.4c-7.72.67-15.17,2.4-22.61,4.99l-10.19-15.41c-3.48-5.1-10.32-6.4-15.42-2.92l-21.27,14.57c-5.1,3.48-6.39,10.51-2.91,15.61l10.69,14.85c-5.14,5.98-9.46,12.36-12.91,19.3l-18.4-3.49c-6.07-1.15-13.7,3.84-14.85,9.91l-4.81,25.39c-1.15,6.07,4.49,11.59,10.55,12.74l18.4,3.49c.67,7.72,2.2,16.2,4.8,23.65l-15.51,10.71c-5.1,3.48-6.45,10.58-2.97,15.68l14.54,21.4c3.48,5.1,10.49,6.45,15.6,2.98l14.77-10.67c5.98,5.14,12.28,9.48,19.22,12.93l-3.49,18.4c-1.15,6.07,4.54,10.84,10.61,11.99l25.39,4.81c6.07,1.15,10.89-1.63,12.04-7.7ZM832.87,518.37c5.42-28.6,33-47.4,61.61-41.98,28.6,5.42,47.4,33,41.98,61.61-5.42,28.6-33,47.4-61.61,41.98-28.6-5.42-47.4-33-41.98-61.61Z"/>
  <path class="cls-31" d="M1948.26,247.85l2.58-13.6c5.7-.5,12.03-1.62,17.53-3.53l7.94,11.46c2.57,3.77,7.83,4.77,11.6,2.2l15.82-10.75c3.77-2.57,4.77-7.75,2.2-11.52l-7.74-11.68c3.8-4.42,7.15-9.84,9.7-14.96l13.6,2.58c4.48.85,7.61-1.85,8.46-6.33l3.56-18.76c.85-4.48-.8-9.55-5.29-10.4l-13.6-2.58c-.5-5.7-1.76-11.26-3.68-16.77l11.39-7.56c3.77-2.57,4.73-7.64,2.16-11.41l-10.76-15.72c-2.57-3.77-7.76-4.73-11.53-2.16l-11.74,7.75c-4.42-3.8-9.9-7.14-15.02-9.69l2.58-13.6c.85-4.48-1.33-9.72-5.82-10.57l-18.76-3.56c-4.48-.85-10.07,2.91-10.92,7.4l-2.58,13.6c-5.7.5-11.21,1.77-16.71,3.69l-7.53-11.39c-2.57-3.77-7.63-4.73-11.4-2.16l-15.72,10.77c-3.77,2.57-4.72,7.76-2.15,11.53l7.9,10.98c-3.8,4.42-6.99,9.13-9.54,14.26l-13.6-2.58c-4.48-.85-10.12,2.84-10.97,7.32l-3.56,18.76c-.85,4.48,3.32,8.56,7.8,9.41l13.6,2.58c.5,5.7,1.63,11.97,3.54,17.47l-11.46,7.92c-3.77,2.57-4.77,7.82-2.2,11.59l10.75,15.81c2.57,3.77,7.75,4.77,11.52,2.2l10.92-7.88c4.42,3.8,9.07,7,14.2,9.55l-2.58,13.6c-.85,4.48,3.36,8.01,7.84,8.86l18.76,3.56c4.48.85,8.05-1.21,8.9-5.69ZM1907.93,158.87c4.01-21.14,24.39-35.03,45.53-31.02,21.14,4.01,35.03,24.39,31.02,45.53-4.01,21.14-24.39,35.03-45.53,31.02-21.14-4.01-35.03-24.39-31.02-45.53Z"/>
  <g>
    <rect class="cls-28" x="876.61" y="68.94" width="285.63" height="192.33" transform="translate(128.47 687.3) rotate(-39.57)"/>
    <path class="cls-53" d="M1002.38,168.4l-31.7,161.9,220.16-181.97-165.02.66c-11.21.38-20.95,8.43-23.44,19.4Z"/>
    <path class="cls-12" d="M1007.26,174.25l-36.58,156.05,220.16-181.97-160.14,6.56c-11.15.46-20.88,8.51-23.43,19.37Z"/>
    <path class="cls-53" d="M1013.06,181.31c11.25-.38,20.99-8.43,23.47-19.37L1068.24,0l-220.16,181.97,164.98-.66Z"/>
    <path class="cls-12" d="M1008.22,175.41c11.15-.46,20.88-8.51,23.43-19.37L1068.24,0l-220.16,181.97,160.14-6.56Z"/>
  </g>
  <g>
    <rect class="cls-36" x="1088.07" y="299.64" width="1109.28" height="1351.54" rx="60.56" ry="60.56"/>
    <rect class="cls-44" x="1234.7" y="459.02" width="816.03" height="216.76"/>
    <g>
      <rect class="cls-49" x="1245.32" y="775.12" width="159.67" height="89.27" rx="35.73" ry="35.73"/>
      <rect class="cls-44" x="1457.87" y="775.12" width="159.67" height="89.27" rx="35.73" ry="35.73"/>
      <rect class="cls-44" x="1670.42" y="775.12" width="159.67" height="89.27" rx="35.73" ry="35.73"/>
      <rect class="cls-44" x="1882.97" y="775.12" width="159.67" height="89.27" rx="35.73" ry="35.73"/>
    </g>
    <rect class="cls-44" x="1245.32" y="907.96" width="159.67" height="89.27" rx="35.73" ry="35.73"/>
    <path class="cls-32" d="M2143.67,300.05c1.34,64.38,2.19,146.85,1,242.33-2.81,224.41-4.21,336.61-27.63,448.48-32.11,153.36-62.02,296.25-182.79,414.47-114.94,112.52-265.13,156.64-325.2,174.29-23.92,7.03-71.06,19.79-161.54,31.88-86.14,11.51-203.15,21.27-346.65,16.21,11.11,14.26,28.41,23.48,47.78,23.48h988.16c33.31,0,60.56-27.25,60.56-60.56V360.21c0-30.98-23.58-56.72-53.69-60.16Z"/>
    <rect class="cls-44" x="1457.87" y="907.96" width="159.67" height="89.27" rx="35.73" ry="35.73"/>
    <rect class="cls-44" x="1670.42" y="907.96" width="159.67" height="89.27" rx="35.73" ry="35.73"/>
    <path class="cls-29" d="M1599.3,912.54c.8,2.98,1.24,6.11,1.24,9.34v17.81c0,19.73-16,35.73-35.73,35.73h-88.21c-6.35,0-12.31-1.67-17.48-4.57,4.11,15.2,17.99,26.39,34.49,26.39h88.21c19.73,0,35.73-16,35.73-35.73v-17.81c0-13.38-7.36-25.03-18.25-31.16Z"/>
    <path class="cls-29" d="M1811.85,912.54c.8,2.98,1.24,6.11,1.24,9.34v17.81c0,19.73-16,35.73-35.73,35.73h-88.21c-6.35,0-12.31-1.67-17.48-4.57,4.11,15.2,17.99,26.39,34.49,26.39h88.21c19.73,0,35.73-16,35.73-35.73v-17.81c0-13.38-7.36-25.03-18.25-31.16Z"/>
    <rect class="cls-44" x="1882.97" y="907.96" width="159.67" height="89.27" rx="35.73" ry="35.73"/>
    <rect class="cls-17" x="1245.32" y="1040.81" width="159.67" height="89.27" rx="35.73" ry="35.73"/>
    <rect class="cls-17" x="1457.87" y="1040.81" width="159.67" height="89.27" rx="35.73" ry="35.73"/>
    <rect class="cls-17" x="1670.42" y="1040.81" width="159.67" height="89.27" rx="35.73" ry="35.73"/>
    <rect class="cls-44" x="1882.97" y="1040.81" width="159.67" height="89.27" rx="35.73" ry="35.73"/>
    <rect class="cls-17" x="1245.32" y="1173.65" width="159.67" height="89.27" rx="35.73" ry="35.73"/>
    <rect class="cls-17" x="1457.87" y="1173.65" width="159.67" height="89.27" rx="35.73" ry="35.73"/>
    <rect class="cls-17" x="1670.42" y="1173.65" width="159.67" height="89.27" rx="35.73" ry="35.73"/>
    <path class="cls-5" d="M1804.01,1042.13c2.35,4.77,3.68,10.13,3.68,15.8v17.81c0,19.73-16,35.73-35.73,35.73h-88.21c-3.34,0-6.58-.47-9.65-1.33,5.83,11.8,17.99,19.93,32.05,19.93h88.21c19.73,0,35.73-16,35.73-35.73v-17.81c0-16.39-11.04-30.19-26.08-34.4Z"/>
    <path class="cls-5" d="M1804.01,1174.98c2.35,4.77,3.68,10.13,3.68,15.8v17.81c0,19.73-16,35.73-35.73,35.73h-88.21c-3.34,0-6.58-.47-9.65-1.33,5.83,11.8,17.99,19.93,32.05,19.93h88.21c19.73,0,35.73-16,35.73-35.73v-17.81c0-16.39-11.04-30.19-26.08-34.4Z"/>
    <rect class="cls-44" x="1882.97" y="1173.65" width="159.67" height="89.27" rx="35.73" ry="35.73"/>
    <g>
      <rect class="cls-17" x="1245.32" y="1306.49" width="159.67" height="89.27" rx="35.73" ry="35.73"/>
      <rect class="cls-17" x="1457.87" y="1306.49" width="159.67" height="89.27" rx="35.73" ry="35.73"/>
      <rect class="cls-17" x="1670.42" y="1306.49" width="159.67" height="89.27" rx="35.73" ry="35.73"/>
      <rect class="cls-44" x="1882.97" y="1306.49" width="159.67" height="222.11" rx="35.73" ry="35.73"/>
    </g>
    <rect class="cls-17" x="1245.32" y="1439.33" width="159.67" height="89.27" rx="30.95" ry="30.95"/>
    <rect class="cls-17" x="1457.87" y="1439.33" width="159.67" height="89.27" rx="33.07" ry="33.07"/>
    <rect class="cls-44" x="1670.42" y="1439.33" width="159.67" height="89.27" rx="28.82" ry="28.82"/>
    <path class="cls-6" d="M1380.71,777c1.35,3.77,2.09,7.83,2.09,12.06v17.81c0,19.73-16,35.73-35.73,35.73h-88.21c-4.01,0-7.85-.67-11.45-1.89,4.95,13.8,18.14,23.67,33.64,23.67h88.21c19.73,0,35.73-16,35.73-35.73v-17.81c0-15.73-10.17-29.07-24.28-33.84Z"/>
    <path class="cls-29" d="M1593.26,777c1.35,3.77,2.09,7.83,2.09,12.06v17.81c0,19.73-16,35.73-35.73,35.73h-88.21c-4.01,0-7.85-.67-11.45-1.89,4.95,13.8,18.14,23.67,33.64,23.67h88.21c19.73,0,35.73-16,35.73-35.73v-17.81c0-15.73-10.17-29.07-24.28-33.84Z"/>
    <path class="cls-29" d="M1805.81,777c1.35,3.77,2.09,7.83,2.09,12.06v17.81c0,19.73-16,35.73-35.73,35.73h-88.21c-4.01,0-7.85-.67-11.45-1.89,4.95,13.8,18.14,23.67,33.64,23.67h88.21c19.73,0,35.73-16,35.73-35.73v-17.81c0-15.73-10.17-29.07-24.28-33.84Z"/>
    <path class="cls-29" d="M2018.36,777c1.35,3.77,2.09,7.83,2.09,12.06v17.81c0,19.73-16,35.73-35.73,35.73h-88.21c-4.01,0-7.85-.67-11.45-1.89,4.95,13.8,18.14,23.67,33.64,23.67h88.21c19.73,0,35.73-16,35.73-35.73v-17.81c0-15.73-10.17-29.07-24.28-33.84Z"/>
    <path class="cls-29" d="M1380.71,909.85c1.35,3.77,2.09,7.83,2.09,12.06v17.81c0,19.73-16,35.73-35.73,35.73h-88.21c-4.01,0-7.85-.67-11.45-1.89,4.95,13.8,18.14,23.67,33.64,23.67h88.21c19.73,0,35.73-16,35.73-35.73v-17.81c0-15.73-10.17-29.07-24.28-33.84Z"/>
    <path class="cls-29" d="M2018.36,909.85c1.35,3.77,2.09,7.83,2.09,12.06v17.81c0,19.73-16,35.73-35.73,35.73h-88.21c-4.01,0-7.85-.67-11.45-1.89,4.95,13.8,18.14,23.67,33.64,23.67h88.21c19.73,0,35.73-16,35.73-35.73v-17.81c0-15.73-10.17-29.07-24.28-33.84Z"/>
    <path class="cls-5" d="M1380.71,1042.69c1.35,3.77,2.09,7.83,2.09,12.06v17.81c0,19.73-16,35.73-35.73,35.73h-88.21c-4.01,0-7.85-.67-11.45-1.89,4.95,13.8,18.14,23.67,33.64,23.67h88.21c19.73,0,35.73-16,35.73-35.73v-17.81c0-15.73-10.17-29.07-24.28-33.84Z"/>
    <path class="cls-5" d="M1593.26,1042.69c1.35,3.77,2.09,7.83,2.09,12.06v17.81c0,19.73-16,35.73-35.73,35.73h-88.21c-4.01,0-7.85-.67-11.45-1.89,4.95,13.8,18.14,23.67,33.64,23.67h88.21c19.73,0,35.73-16,35.73-35.73v-17.81c0-15.73-10.17-29.07-24.28-33.84Z"/>
    <path class="cls-29" d="M2018.36,1042.69c1.35,3.77,2.09,7.83,2.09,12.06v17.81c0,19.73-16,35.73-35.73,35.73h-88.21c-4.01,0-7.85-.67-11.45-1.89,4.95,13.8,18.14,23.67,33.64,23.67h88.21c19.73,0,35.73-16,35.73-35.73v-17.81c0-15.73-10.17-29.07-24.28-33.84Z"/>
    <path class="cls-5" d="M1380.71,1175.53c1.35,3.77,2.09,7.83,2.09,12.06v17.81c0,19.73-16,35.73-35.73,35.73h-88.21c-4.01,0-7.85-.67-11.45-1.89,4.95,13.8,18.14,23.67,33.64,23.67h88.21c19.73,0,35.73-16,35.73-35.73v-17.81c0-15.73-10.17-29.07-24.28-33.84Z"/>
    <path class="cls-5" d="M1593.26,1175.53c1.35,3.77,2.09,7.83,2.09,12.06v17.81c0,19.73-16,35.73-35.73,35.73h-88.21c-4.01,0-7.85-.67-11.45-1.89,4.95,13.8,18.14,23.67,33.64,23.67h88.21c19.73,0,35.73-16,35.73-35.73v-17.81c0-15.73-10.17-29.07-24.28-33.84Z"/>
    <path class="cls-29" d="M2018.36,1175.53c1.35,3.77,2.09,7.83,2.09,12.06v17.81c0,19.73-16,35.73-35.73,35.73h-88.21c-4.01,0-7.85-.67-11.45-1.89,4.95,13.8,18.14,23.67,33.64,23.67h88.21c19.73,0,35.73-16,35.73-35.73v-17.81c0-15.73-10.17-29.07-24.28-33.84Z"/>
    <path class="cls-5" d="M1380.71,1308.38c1.35,3.77,2.09,7.83,2.09,12.06v17.81c0,19.73-16,35.73-35.73,35.73h-88.21c-4.01,0-7.85-.67-11.45-1.89,4.95,13.8,18.14,23.67,33.64,23.67h88.21c19.73,0,35.73-16,35.73-35.73v-17.81c0-15.73-10.17-29.07-24.28-33.84Z"/>
    <path class="cls-5" d="M1593.26,1308.38c1.35,3.77,2.09,7.83,2.09,12.06v17.81c0,19.73-16,35.73-35.73,35.73h-88.21c-4.01,0-7.85-.67-11.45-1.89,4.95,13.8,18.14,23.67,33.64,23.67h88.21c19.73,0,35.73-16,35.73-35.73v-17.81c0-15.73-10.17-29.07-24.28-33.84Z"/>
    <path class="cls-5" d="M1805.81,1308.38c1.35,3.77,2.09,7.83,2.09,12.06v17.81c0,19.73-16,35.73-35.73,35.73h-88.21c-4.01,0-7.85-.67-11.45-1.89,4.95,13.8,18.14,23.67,33.64,23.67h88.21c19.73,0,35.73-16,35.73-35.73v-17.81c0-15.73-10.17-29.07-24.28-33.84Z"/>
    <path class="cls-29" d="M2018.36,1308.38c1.35,3.77,2.09,7.83,2.09,12.06v150.65c0,19.73-16,35.73-35.73,35.73h-88.21c-4.01,0-7.85-.67-11.45-1.89,4.95,13.8,18.14,23.67,33.64,23.67h88.21c19.73,0,35.73-16,35.73-35.73v-150.65c0-15.73-10.17-29.07-24.28-33.84Z"/>
    <path class="cls-5" d="M1381.7,1440.29c.72,2.61,1.11,5.36,1.11,8.21v27.37c0,17.09-13.86,30.95-30.95,30.95h-97.77c-2.64,0-5.2-.33-7.65-.95,3.6,13.11,15.59,22.74,29.84,22.74h97.77c17.09,0,30.95-13.86,30.95-30.95v-27.38c0-14.45-9.91-26.59-23.3-29.99Z"/>
    <path class="cls-5" d="M1593.83,1440.69c.99,3.14,1.52,6.47,1.52,9.93v23.12c0,18.27-14.81,33.07-33.07,33.07h-93.52c-3.25,0-6.39-.48-9.36-1.35,4.22,13.41,16.75,23.14,31.55,23.14h93.52c18.27,0,33.07-14.81,33.07-33.07v-23.12c0-15.01-10.01-27.68-23.71-31.72Z"/>
    <path class="cls-29" d="M1807.17,1439.94c.47,2.07.73,4.22.73,6.43v31.63c0,15.92-12.9,28.82-28.82,28.82h-102.02c-2.02,0-4-.21-5.9-.61,2.92,12.82,14.39,22.39,28.09,22.39h102.02c15.92,0,28.82-12.9,28.82-28.82v-31.63c0-13.89-9.83-25.49-22.92-28.21Z"/>
    <path class="cls-48" d="M2050.72,459.02h-9.52c-8.07,35.97-26.69,86.57-70.83,125.86-35.94,32-77.31,46.28-97.77,53.14-44.08,14.78-80.21,16.4-93.52,17-72,3.26-241.41,11.16-472.46,20.75h744.1v-216.76Z"/>
    <polygon class="cls-60" points="1433.88 459.02 1297.29 675.78 1353.76 675.78 1490.34 459.02 1433.88 459.02"/>
    <polygon class="cls-27" points="1271.89 497.28 2050.72 497.28 2050.72 459.02 1234.7 459.02 1234.7 675.78 1271.89 675.78 1271.89 497.28"/>
  </g>
  <g>
    <path class="cls-54" d="M1130.39,1445.29c42.5,31.01,45.79,109.16,36.36,154.37-2.55,12.23-7.64,35.09-27.01,54.03-28.78,28.13-75.8,34.66-113.13,18.57-46.27-19.94-101.82-66.58-96.05-110.05,9.5-71.56,168.49-139.78,199.83-116.92Z"/>
    <path class="cls-23" d="M873.38,1661.5c14.76-8.79,26.33-14.21,40.52-20.89,20.2-9.52,20.83-9.89,23.43-10.13,15.35-1.4,32.56,7.99,40.52,21.53,16.65,28.3.87,70.25-24.06,73.45-33.8,4.34-39.39-27.53-63.01-44.56-7.5-5.41-37.96,2.58-33.23-6.73,1.67-3.28,3.97-5.6,15.83-12.66Z"/>
    <path class="cls-55" d="M964.04,1079.63c11.78,3.58,20.76,16.07,22.78,19.03,2.56,3.74,7.74,11.32,7.76,17.52.08,27.98-104.84,60.19-115.41,42.06-3.43-5.87,3.87-15.63,15.77-31.54,8.78-11.75,41.48-55.46,69.1-47.07Z"/>
    <path class="cls-34" d="M953.16,1633c12.83-2.91,52.28-25.8,58.58-13.76,14.97,28.62-32.5,106.7-57.95,106.2-20.41-.4-23.06-33.8-23.43-37.36-1.95-19.04,3.81-50.78,22.79-55.08Z"/>
    <path class="cls-8" d="M831.04,1159.49c19.91-8.64,39.03-7.81,59.46-19.6,27.02-15.58,48.98-41,62.85-58.29,7.5-9.35,20.2-23.82,19.03-18.03-21.67,106.93,111.49,103.66,123.17,115.16,6.01,5.91,16.79,16.38,18.03,31.04,1.31,15.53-9.08,23.82-20.03,44.06-11.41,21.1-14.86,39.34-18.03,56.08-7.11,37.61-.65,69.89,4.01,92.13,9.05,43.21,20.76,53.22,13.02,69.1-11.33,23.23-48.61,26.76-62.09,28.04-32.04,3.04-194.34-5.9-207.29-42.06-2.69-7.51-9.64-52.96-10.01-64.09-.62-18.51-5.65-92.78-12.02-164.23-2.57-28.88-5.75-41.82,5.94-55.57,5.27-6.2,10.55-7.93,23.96-13.75Z"/>
    <path class="cls-23" d="M661.37,1617.14c33.44,14.51,50.39,12.16,56.32,15.38,2.2,1.19,23.31,1.94,23.58,22.86.28,22.15,20.75,47.41-54.07,47.28-3.87,0-16.31-1.24-41.14-5.07-24.95-3.85-40.33-6.38-59.95-13.51-24.25-8.81-53.92-32.07-39.69-66.94,4.9-12.01,35.34-34.55,114.95,0Z"/>
    <path class="cls-11" d="M764.15,1269.87c18.94-56.05,13.87-68.31,38.94-94.85,8.18-8.66,25.69-23.27,37.64-16.5,27.34,15.5,8.02,106.55.54,141.39-13.04,60.74-59.46,147.49-78.02,154.26-1.21.44-53.26-29.45-55.71-31.97-3.89-4.01,24.64-71.39,38.59-105.26,5.95-14.45,11.83-28.74,18.03-47.07Z"/>
    <path class="cls-55" d="M801.73,1244.8c4.1-8.18,22.34,23.16,41.63,45.21-.76,3.64-1.47,6.97-2.1,9.89-13.04,60.74-59.46,147.49-78.02,154.26-.36.13-5.35-2.49-12.21-6.29,71.49-63.17,27.8-157.37,50.69-203.07Z"/>
    <path class="cls-47" d="M904.37,1114.07c1.91-15.55.48-32.62,3.81-46.05,7.95-32.07,54.01-48.45,67.63-37.21,8.19,6.76-5.82,42.64,1.53,71.48,8.99,35.3,32.37,23.72,40.26,28.6,11.05,6.84-15.04,21.31-28.29,29.97-18.63,12.17-56.68,57.71-75.09,49.19-31.66-14.65-28.76-64.98-23.72-70.17,3.83-3.94,10.75-.43,13.86-25.83Z"/>
    <path class="cls-20" d="M810.22,1168.72c5.27-6.2,10.62-8.2,24.03-14.02,8.19-3.55,40.11-14.49,49.69-18.86-.75,44.31-4.06,57.39-1.73,79.68,4.82,46.11-1.83,90.8-3.04,179.3-.51,37.17,2.23,86.46,2.47,108.29-27.36-6.58-52.29-2.02-56.63-14.14-2.69-7.51-10.06-44.87-10.43-56-.62-18.51-12.78-104.24-10.38-204.17.7-28.98-5.68-46.34,6.01-60.08Z"/>
    <path class="cls-20" d="M988.83,1149.72c6.32-9.91,12.79-18.86,19.18-26.92,33.87,30.66,104.43,54.9,108.75,71.14,2.16,8.15-1.34.92-.11,15.58,1.31,15.53-9.08,23.82-20.03,44.06-11.41,21.1-14.86,39.34-18.03,56.08-7.11,37.61-.65,69.89,4.01,92.13,9.05,43.21,20.76,53.22,13.02,69.1-11.33,23.23-48.61,26.76-62.09,28.04-12.43,1.18-44.46.55-79.77-2.76-.59-21.62-1.73-49.05-3.99-80.57-6.28-87.59-13.43-142.16-7.25-184.01,1.84-12.44,10.19-25.21,46.31-81.87Z"/>
    <path class="cls-59" d="M879.48,1154.18h0c.84-.05,1.57.57,1.64,1.41.64,7.76,3.51,32.43,14.98,47.46,3.08,4.04,8.25,10.8,17.16,13.31,1.89.53,3.84.84,5.84.93.81.04,1.44.72,1.44,1.53v1.59h-.16c-2.72,0-5.4-.36-7.96-1.08-9.91-2.79-15.46-10.06-18.78-14.41-11.84-15.52-14.87-39.84-15.6-49.08-.07-.86.58-1.6,1.44-1.65Z"/>
    <path class="cls-52" d="M879.76,1134.37c7.46-7.22,24.89-22.65,24.89-18.78,0,6.52-14.71,20.25-20.71,54.41-1.95,11.08.14,73.93-.14,70.85,0,0-24.98-24.02-23.46-36.1.82-6.53,7.78-11.2,6.47-12.94-1.34-1.78-8.1,3.78-11.33,1.62-5.38-3.61,2.93-26.12,11.33-41.26,5.98-10.79,10.88-15.8,12.94-17.8Z"/>
    <path class="cls-54" d="M621.38,1412.24c20.45,6.67,34.88,13.24,35.46,13.51,51.62,23.51,143.52,56.3,182.35,67.54,119.43,34.55,196.38-1.87,200.92,15.2,6.16,23.13-129.5,111.22-275.21,91.18-22.26-3.06-98.07-14.55-157.02-74.29-44.48-45.07-72.43-113.99-57.51-128.46,8.73-8.47,33.24,3.01,71.02,15.34Z"/>
    <path class="cls-44" d="M525.14,1397.05c3.22-1.35,16.97-6.76,35.46-3.38,32.03,5.85,75.55,58.97,182.35,126.63,130.74,82.83,140.64,94.61,138.45,104.68-5.42,24.97-82.3,26.88-89.49,27.01-69.44,1.27-253.73-115.61-280.28-146.89-47.53-56.02-4.54-100.51,13.51-108.06Z"/>
    <polygon class="cls-38" points="890.78 1533.21 890.78 1541.43 762.92 1600 622.4 1538.43 649.44 1472.33 890.78 1533.21"/>
    <path class="cls-23" d="M554.96,1607.42c-2.8,6.88-5.13,16.66-2.55,27.5,3.71,15.58,15.38,24.14,22.59,29.44,14.26,10.47,28.7,13.34,34.23,14.38,22.44,4.21,66.33,10.47,124.72,16.95-8.14,4.36-22.4,7.01-46.77,6.97-3.87,0-16.31-1.24-41.14-5.07-24.95-3.85-40.33-6.38-59.95-13.51-24.25-8.81-53.92-32.07-39.69-66.94,1.2-2.94,3.94-6.51,8.55-9.72Z"/>
    <polygon class="cls-25" points="890.33 1532.24 767.6 1590.81 621.95 1529.23 648.99 1463.14 890.33 1532.24"/>
    <path class="cls-47" d="M680.48,1635.11c1.33.12,4.31.81,10.27,2.2,12.8,2.98,15.83,4.55,21.81,4.55,2.81,0,6.57-.35,12.9-2.45,16.68-5.52,29.67-16.04,39.44-22.88,20.03-14.02,30.05-21.03,40.52-20.26,25.23,1.86,52.04,46.56,40.52,69.23-5.96,11.73-16.86,7.1-75.98,21.95-32.93,8.27-55.79,13.68-79.36,11.82-17.7-1.4-26.74-8.48-29.85-11.21-2.2-1.93-3.61-3.61-3.92-3.98-6.45-7.73-13.75-23.03-6.75-35.46,6.44-11.43,21.54-14.31,30.39-13.51Z"/>
    <path class="cls-45" d="M951.54,1101.87c13.27-8.01,20.9-24.37,23.8-26.89.44.65-.42,6.15-.21,6.87-2.84,10.11-20.47,52.73-76.28,51.74,3.11-4.89,4.84-13.11,5.52-19.53,20.87-.12,36-5.46,47.17-12.2Z"/>
    <path class="cls-47" d="M886.56,963.36c18.98-11.88,40.03-6.24,45.57-4.52,23.97,7.44,35.65,27.75,40.28,35.82,16.29,28.33,11.25,56.52,9.81,63.96-4.55,23.4-40.21,73.34-74.45,61.11-11.58-4.14-18.79-10.94-25.43-22.12-8.85-14.89-7.67-28.87-11.49-42.66-4.58-16.52-6.26-29.05-6.33-37.31-.05-5.61-3.59-38.25,22.05-54.3Z"/>
    <path class="cls-16" d="M905.1,1033.91c3.76-1.38,7.62-2.49,11.52-3.32,6.2-1.32,12.55-1.94,18.91-1.84,1.59.02,2.85,1.34,2.77,2.93h0c-.07,1.49-1.31,2.67-2.8,2.65-5.96-.09-11.91.49-17.72,1.72-3.65.78-7.27,1.82-10.8,3.12-1.4.51-2.96-.19-3.52-1.58h0c-.6-1.47.15-3.13,1.63-3.68Z"/>
    <path class="cls-45" d="M893.6,1043.08c.77-.1,1.45.39,1.52,1.09.46,5.01.64,10.1.54,15.17-.05,2.42-.16,4.48-.25,6.29-.26,5.04-.4,7.57,1.13,8.96,1.86,1.71,6.03,1.48,11.81-.63.7-.26,1.48.04,1.74.67h0c.28.66-.11,1.43-.86,1.7-1.12.41-2.19.75-3.2,1.03-5.35,1.48-9.21,1.18-11.5-.93-2.34-2.15-2.18-5.22-1.89-10.8.09-1.79.2-3.83.25-6.22.1-4.98-.07-9.99-.53-14.91-.06-.69.49-1.33,1.25-1.43Z"/>
    <path class="cls-16" d="M917.85,1038.3c2.15-.36,4.35,2.06,4.92,5.41.57,3.35-.71,6.37-2.86,6.73-2.15.36-4.35-2.06-4.92-5.41-.57-3.35.71-6.36,2.86-6.73Z"/>
    <path class="cls-16" d="M882.07,1044.59c2.15-.36,4.35,2.06,4.92,5.41.57,3.35-.71,6.36-2.86,6.73-2.15.36-4.35-2.06-4.92-5.41-.57-3.35.71-6.37,2.86-6.73Z"/>
    <path class="cls-16" d="M869.67,1038.71c3.46-.81,6.98-1.34,10.5-1.59,2.7-.19,5.37-.2,7.99-.04,1.31.08,2.37,1.45,2.34,3.02-.02,1.49-1.02,2.61-2.26,2.53-2.45-.15-4.97-.14-7.5.04-3.34.23-6.68.74-9.95,1.51-1.2.28-2.42-.67-2.77-2.13-.37-1.54.39-3.04,1.65-3.34Z"/>
    <path class="cls-55" d="M996.72,1138.2c-1.08,10.22-.8,18.6,1,25.32,4.67,17.38,10.43,17.91,10.81,35.46.33,15.32-33.62,14.93-47.77,6.72-1.73-1-4.57-.35-6.45-.75,6.92-11.75,17.72-28.61,34.52-54.96,2.61-4.09,5.25-8.01,7.89-11.78Z"/>
    <path class="cls-55" d="M1044.74,1224.81c10.7-7.84,39.19-21.75,71.86-23.69-.25,1.42-.35,3.86.05,8.66,1.31,15.53-9.08,23.82-20.03,44.06-11.41,21.1-14.86,39.34-18.03,56.08-7.11,37.61-.65,69.89,4.01,92.13,9.05,43.21,20.76,53.22,13.02,69.1-10.77,22.08-44.95,26.36-59.89,27.83-54.07-120.46-50.43-230.63,9.01-274.17Z"/>
    <path class="cls-41" d="M895.55,1089.98l3.55-.08c5.13-.11,10.32-.87,15.41-2.25l6.62-1.79c1.51-.41,2.67.84,2.06,2.19-1.83,4.03-9.08,9.79-16.01,10.89-6.88,1.09-11.33-2.79-13.52-6.15-.75-1.15.35-2.77,1.89-2.8Z"/>
    <path class="cls-3" d="M936.33,1051.62c5.49-1.67,10.78-.24,11.83,3.19,1.04,3.43-2.56,7.56-8.05,9.23-5.49,1.67-10.78.24-11.83-3.19-1.04-3.43,2.56-7.56,8.05-9.23Z"/>
    <path class="cls-2" d="M883.1,945.18c61.8-40.14,96.77,10.81,96.77,10.81,0,0,47.82,10.77,27.53,72.74,0,0-18.02,45.95-27.53,46.25-4.19.13,10.63-46.7,2.22-51.99-3.54-2.22-15.34.53-19.12,5.74-6.03,8.31-12.43,14.33-12.01-8.97.26-14.53-.25-15.91-4.34-20.25-4.8-5.1-40.9,12.19-50.25,15.85-27.02,10.59-54.39,2.64-58.39-18.17-7.43-38.67,5.53-26.3,45.12-52.01Z"/>
    <g>
      <path class="cls-47" d="M977.39,1020.65c5.98.64,9.89,9.25,11.02,14.89,2.71,13.48-6.53,29.18-13.11,28.41-7.32-.86-15.32-22.54-8.8-35.17.23-.44,4.68-8.8,10.89-8.13Z"/>
      <g>
        <path class="cls-45" d="M975.49,1051.99c-.2.3-.34.52-.34.52,0-.03.13-.21.34-.52Z"/>
        <path class="cls-45" d="M971.86,1034.74c2.95-1.46,6.34-.1,8.02,1.92,2.94,3.54,1.78,9.75-.11,14-.79,1.77-2.32,4.58-4.22,4.9-.2.03-2.44.14-.39-3.05.16-.25.29-.45.42-.65.16-.23.35-.53.56-.87.93-1.45.57-.9.05-.08.78-1.28,1.8-3.21,2.29-5.37.69-3.05.46-5.54-.62-6.84-.99-1.19-3.1-1.97-4.77-1.14-1.22.6-2.07,1.95-2.32,3.6-.11.73-.63,1.29-1.31,1.29-.89,0-1.6-.89-1.46-1.86.39-2.64,1.8-4.84,3.87-5.86Z"/>
        <path class="cls-45" d="M975.57,1051.87s-.05.08-.08.12c.2-.31.46-.71.69-1.07-.02.03-.03.05-.05.08-.15.23-.34.53-.56.87Z"/>
      </g>
      <path class="cls-45" d="M965.94,1029.55c-.32.83.09,1.8.88,2.1.68.26,1.42-.08,1.7-.8.76-1.98,2.35-4.88,5.39-6.24.86-.39,2.88-1.29,5.08-.47,2.07.77,3.22,2.66,4.05,4.05,2.12,3.5,3.13,7.76,3.01,12.67-.23,9.12-4.4,17.11-7.09,18.05-.83.29-.99,1.09-1.18,2.02-.51,2.53-1.31,4.93-3.73,5.34h0c-1.21.21-1.75-.02-2.32-1.9-.24-.78-.96-1.26-1.68-1.09h0c-.79.19-1.24,1.1-.98,1.96.66,2.19,2,4.68,5.5,4.08h0c4.56-.78,5.56-5.75,5.94-7.62,0-.05.02-.09.03-.14,3.85-2.1,8.06-10.85,8.31-20.52.17-6.93-1.8-11.72-3.49-14.51-.95-1.57-2.54-4.2-5.56-5.32-3.2-1.18-5.97.06-7.02.53-3.89,1.74-5.89,5.36-6.83,7.81ZM979.88,1061.85h0s0,0,0,0Z"/>
      <path class="cls-45" d="M972.32,1042.31c1.62,1.19,1.89,3.44,2.03,4.54.3,2.41-.34,4.78-.77,4.76-.57-.03.12-4.34-2.41-7.27-1.31-1.52-2.79-1.86-2.68-2.34.13-.55,2.29-.82,3.83.31Z"/>
    </g>
    <path class="cls-47" d="M748.16,1503.35c6.85-3.08,6.7-2.36,15.79-6.18,6.59-2.77,8.58-3.95,13.04-4.81,3.18-.61,5.51-.65,9.61-.69,9.2-.08,13.8-.12,19.22,0,0,0,14.1.3,28.83-2.06,8.82-1.41,8.91-2.76,25.4-6.87,20.75-5.16,28.04-5.89,44.62-10.98,9.42-2.89,14.36-4.41,21.28-7.55,11.43-5.19,14.95-8.76,28.83-16.48,14.03-7.79,21.04-11.69,25.4-11.67,22.68.1,47.88,41.39,37.76,58.35-3.49,5.84-11.93,8.93-28.83,15.1-9.54,3.49-16.95,5.14-18.54,5.49-15.63,3.43-19.05,1.22-38.44,3.43-15.32,1.74-15.11,3.34-34.33,5.49-7.54.84-8.99.76-21.28,2.06-15.35,1.63-23.02,2.44-26.77,3.43-16.58,4.39-14.84,10.28-30.89,14.42-10.84,2.79-12.31.28-28.15,4.12-4.29,1.04-5.7,1.59-17.85,4.81-17.13,4.53-19.48,4.8-21.97,3.43-4.56-2.5-3.15-6.98-8.24-21.28-5.33-14.99-10.07-19.05-7.55-24.03,1.11-2.19,5.09-3.98,13.04-7.55Z"/>
    <path class="cls-47" d="M701.86,1441.54c5.25-18.89,7.96-28.4,12.36-31.58,12.06-8.72,29.98-1.24,32.95,0,14.22,5.94,28.69,20.59,26.09,32.27-.86,3.86-5.61,8.07-15.1,16.48-5.37,4.76-8.41,6.68-17.16,14.42-4.05,3.58-6.08,5.37-7.55,6.87-13.18,13.39-11.08,23.01-19.22,26.77-8.04,3.72-20.45-.88-24.03-8.24-2.2-4.52-.3-8.5,2.75-18.54,5.26-17.33,1.41-11.39,8.92-38.44Z"/>
    <path class="cls-45" d="M773.39,1502.86l.35.96c-3.67,1.33-7.36,2.71-10.97,4.12-6.66,2.59-13.35,5.35-19.89,8.23l-.41-.94c6.55-2.88,13.26-5.65,19.93-8.25,3.62-1.4,7.31-2.79,10.99-4.12Z"/>
    <path class="cls-45" d="M781.69,1514.52l.22,1c-4.63,1.03-9.23,2.41-13.66,4.1-6.18,2.35-12.15,5.34-17.76,8.88l-.55-.87c5.66-3.58,11.7-6.6,17.94-8.97,4.48-1.7,9.12-3.1,13.8-4.14Z"/>
    <path class="cls-45" d="M791.97,1528.94l.26.99c-5.07,1.33-10.14,2.94-15.05,4.79-7.52,2.83-14.89,6.28-21.89,10.26l-.51-.89c7.05-4.01,14.47-7.49,22.04-10.33,4.95-1.86,10.04-3.48,15.15-4.82Z"/>
    <polygon class="cls-38" points="720.09 1445.11 767.6 1590.81 592.91 1539.24 535.7 1402.15 540.84 1398.05 720.09 1445.11"/>
    <path class="cls-19" d="M953.16,1633c12.83-2.91,52.28-25.8,58.58-13.76,1.77,3.38,2.66,7.46,2.82,12.01-3.72.83-8.14,1.91-13.07,3.32-14.99,4.28-32.72,9.35-46.55,19.51-4.94,3.63-16.27,12.98-24.76,31.74-1.3-19.19,4.73-48.68,22.98-52.82Z"/>
    <polygon class="cls-58" points="762.92 1600 587.78 1547.46 535.7 1402.15 714.96 1449.22 762.92 1600"/>
    <path class="cls-20" d="M998.03,1419.37c20.86-11.36,25.1-10.26,28.04-16.02,4.24-8.31-10.01-104.15,10.01-155.22,7.44-18.96,19.59-68.56,44.36-71.86,50.43-6.73,49.21,64.48,49.77,74.87.79,14.76-1.17,25.83-6.01,49.07-4.96,23.85-7.44,35.77-10.01,46.06-20.7,82.72-9.21,93.2-27.04,118.17-23.19,32.47-66.02,47.5-73.1,40.06-2.5-2.63,1.29-6.11,1-17.02-.43-16.22-2.68-48.34-44.86-50.52-1.04-.05,5.52-5.42,27.83-17.58Z"/>
    <path class="cls-44" d="M845.95,1560.82c39.79-18.91,85.62-48.63,177.28-108.06,13.81-8.96,34.61-22.68,62.47-21.95,7.39.19,34.65.91,52.34,21.95,18.72,22.27,13.28,51.31,11.82,59.09-6.05,32.31-29.89,51.51-45.59,64.16-19.22,15.49-36.88,22.51-65.85,33.77-31.34,12.18-45.01,14.27-69.23,21.95-88.38,28.02-122.26,68.58-146.89,52.34-3.27-2.15-8.93-12.13-20.26-32.08-14.03-24.71-21.05-37.07-20.26-45.59,1.86-20.09,31.13-29.89,64.16-45.59Z"/>
    <path class="cls-18" d="M594.21,1628.73c9.02,1.94,28.81,7.44,42.27,11.18,5.24,1.46,9.91,2.75,12.1,3.33.62.16,1.27.02,1.77-.37.58-.45,1.3-1.07,1.92-1.61,5.71-4.94,17.41-15.04,38.62-8.34,1.12.35,1.73,1.56,1.33,2.66h0c-.37,1.04-1.5,1.6-2.54,1.27-19.04-6.04-29.19,2.74-34.73,7.52-2.21,1.91-3.75,3.24-5.42,3.24-.21,0-.43-.02-.64-.07-1.12-.23-5.41-1.42-13.52-3.67-13.42-3.73-33.19-9.23-42.02-11.12-1.09-.23-1.79-1.28-1.59-2.38.21-1.14,1.31-1.88,2.44-1.64Z"/>
    <path class="cls-18" d="M590.07,1637.94c.26-1.1,1.37-1.79,2.47-1.53,36.71,8.66,49.05,12.7,52.45,17.1.66.86.87,2.12,1.29,4.65,1.14,6.87,3.51,21.16,17.13,30.64,14.01,9.74,36.19,11.9,65.95,6.43,1.11-.2,2.18.52,2.4,1.62.22,1.12-.52,2.21-1.64,2.41-10.89,2-20.83,3-29.78,3-16.45,0-29.59-3.37-39.27-10.1-15.04-10.46-17.61-25.91-18.84-33.34-.13-.8-.28-1.68-.41-2.28-.09-.44-.32-.83-.66-1.12-4.81-4.15-26.82-9.66-49.57-15.02-1.1-.26-1.79-1.36-1.53-2.47h0Z"/>
    <path class="cls-52" d="M973.83,1155.68c13.67-39.33,6.68-53.77,5.3-59.6-1.19-5.06-4.01-10.3-4.01-10.3,0,0,12.34,6.46,20.6,15.04,4.81,5,7.64,7.94,10.08,12.66,3.11,6.03,3.83,11.61,3.95,24.97.28,30.59-3.26,29.25-1.89,46.99.72,9.31,2.01,13.72-1.13,17.03-5.63,5.92-19.67,2.16-25.07.72-7.38-1.97-10.09-6.75-13.1-5.29-3.17,1.54-2.03,6.95-3.67,13.05-3.87,14.43-23.98,35.55-23.98,35.55,0,0-4.42-11.92,14.78-45.8,10.76-18.99,14.52-34.66,18.13-45.03Z"/>
    <path class="cls-55" d="M1027.5,1403.43c1.89-.36,3.81-.61,5.71-.74,8.06-.56,16.12.88,23.97,4.29.79.34,1.13,1.28.77,2.06-.35.76-1.25,1.08-2.02.75-7.39-3.2-14.96-4.55-22.5-4.03-1.77.12-3.55.35-5.31.69-.82.16-1.63-.35-1.81-1.17h0c-.19-.84.35-1.69,1.19-1.85Z"/>
    <path class="cls-40" d="M637.21,1483.19c4.52-1.8,10.02,1.37,12.29,7.07,2.27,5.7.44,11.78-4.08,13.58-4.52,1.8-10.02-1.37-12.29-7.07-2.27-5.7-.44-11.78,4.08-13.58Z"/>
    <path class="cls-10" d="M559.6,1443.24c25.08,50.57,60.31,79.07,73.93,89.85,43.54,34.44,90.32,49.12,125.72,55.41l3.66,11.51-175.14-52.54-52.07-145.31,8.47,2.22c3.59,11.77,8.54,24.96,15.43,38.86Z"/>
    <path class="cls-51" d="M712.9,1449.22h0c.81-.26,1.68.18,1.94.99l26.76,82.77c.26.81-.18,1.68-.99,1.94-.81.26-1.68-.18-1.94-.99l-26.76-82.77c-.26-.81.18-1.68.99-1.94Z"/>
    <path class="cls-51" d="M645.25,1431.38l68.6,18.01c.82.22,1.32,1.06,1.1,1.88-.22.82-1.06,1.32-1.88,1.1l-68.61-18.01c-.82-.22-1.31-1.06-1.1-1.88.22-.82,1.06-1.32,1.88-1.1Z"/>
    <path class="cls-57" d="M970.31,1629.86c73.09-18.71,127.03-43.36,151.99-69.46.24-.25.45-.47.62-.65l2.2,2.16c-.17.17-.36.38-.6.62-25.35,26.51-79.81,51.45-153.45,70.31-.83.21-1.68-.29-1.88-1.11-.21-.82.29-1.66,1.12-1.87Z"/>
    <path class="cls-50" d="M780.21,1606.41c.81-.07,1.41.22,1.53,1.02,2.25,15.03,18.78,42.42,28.79,58.99,2.14,3.55,4.04,6.69,5.54,9.27.43.74.17,1.68-.57,2.11h0c-.73.42-1.66.17-2.09-.56-1.49-2.56-3.38-5.69-5.52-9.23-10.77-17.83-26.85-44.46-29.2-60.1-.13-.88.63-1.42,1.52-1.5Z"/>
    <path class="cls-57" d="M818.38,1606.84c.78-.32,1.67.06,1.99.84,8.39,20.38,19.62,38.98,33.4,55.33,2.92,3.46,5.98,6.85,9.13,10.12.59.61.58,1.57-.03,2.16h0c-.61.6-1.6.59-2.19-.03-3.19-3.31-6.31-6.76-9.26-10.27-13.99-16.59-25.38-35.47-33.89-56.14-.33-.79.06-1.7.85-2.02Z"/>
    <path class="cls-37" d="M599.52,1551.8l126.21,38.4c.81.25,1.27,1.11,1.03,1.92h0c-.25.81-1.11,1.27-1.92,1.03l-126.21-38.4c-.81-.25-1.27-1.11-1.03-1.92.25-.81,1.11-1.27,1.92-1.03Z"/>
  </g>
  <g>
    <g>
      <path class="cls-13" d="M2472.22,1645.21c-60.25,0-123.02-7.31-144.86,0v20.22c0,11.17,64.86,20.22,144.86,20.22s144.86-9.05,144.86-20.22v-20.22c-17.91-8.33-79.36,0-144.86,0Z"/>
      <path class="cls-21" d="M2363.66,1678.81c11.68,1.84,25.72,3.39,41.48,4.54v-40.09c-15.13-.65-29.24-1.22-41.48-1.29v36.84Z"/>
      <path class="cls-9" d="M2529.57,1643.61v40.39c51.48-3.1,87.52-10.25,87.52-18.57v-20.22c-12.48-5.8-46.12-3.52-87.52-1.6Z"/>
      <path class="cls-56" d="M2472.22,1624.99c-80,0-144.86,9.05-144.86,20.22s64.86,20.22,144.86,20.22,144.86-9.05,144.86-20.22-64.86-20.22-144.86-20.22Z"/>
      <path class="cls-26" d="M2592.92,1641.96c-21.21-4.59-61.41-9.19-120.7-9.19s-99.49,4.6-120.7,9.19c-3.49.76-3.49,5.75,0,6.51,21.21,4.59,61.41,9.19,120.7,9.19s99.49-4.6,120.7-9.19c3.49-.76,3.49-5.75,0-6.51Z"/>
      <path class="cls-30" d="M2592.92,1641.96c-21.21-4.59-61.41-9.19-120.7-9.19s-99.49,4.6-120.7,9.19c-3.49.76-3.49,5.75,0,6.51.58.13,1.18.25,1.79.38,21.64-4.47,61.25-8.81,118.91-8.81s97.27,4.35,118.91,8.81c.61-.13,1.21-.25,1.79-.38,3.49-.76,3.49-5.75,0-6.51Z"/>
    </g>
    <g>
      <path class="cls-13" d="M2466.35,1615.16c-60.25,0-123.02-7.31-144.86,0v20.22c0,11.17,64.86,20.22,144.86,20.22s144.86-9.05,144.86-20.22v-20.22c-17.91-8.33-79.36,0-144.86,0Z"/>
      <path class="cls-21" d="M2357.78,1648.76c11.68,1.84,25.72,3.39,41.48,4.54v-40.09c-15.13-.65-29.24-1.22-41.48-1.29v36.84Z"/>
      <path class="cls-9" d="M2523.69,1613.56v40.39c51.48-3.1,87.52-10.25,87.52-18.57v-20.22c-12.48-5.8-46.12-3.52-87.52-1.6Z"/>
      <ellipse class="cls-56" cx="2466.35" cy="1615.16" rx="144.86" ry="20.22"/>
      <path class="cls-26" d="M2587.05,1611.9c-21.21-4.59-61.41-9.19-120.7-9.19s-99.49,4.6-120.7,9.19c-3.49.76-3.49,5.75,0,6.51,21.21,4.59,61.41,9.19,120.7,9.19s99.49-4.6,120.7-9.19c3.49-.76,3.49-5.75,0-6.51Z"/>
      <path class="cls-30" d="M2587.05,1611.9c-21.21-4.59-61.41-9.19-120.7-9.19s-99.49,4.6-120.7,9.19c-3.49.76-3.49,5.75,0,6.51.58.13,1.18.25,1.79.38,21.64-4.47,61.25-8.81,118.91-8.81s97.27,4.35,118.91,8.81c.61-.13,1.21-.25,1.79-.38,3.49-.76,3.49-5.75,0-6.51Z"/>
    </g>
    <g>
      <path class="cls-13" d="M2446.23,1587.12c-60.25,0-123.02-7.31-144.86,0v20.22c0,11.17,64.86,20.22,144.86,20.22s144.86-9.05,144.86-20.22v-20.22c-17.91-8.33-79.36,0-144.86,0Z"/>
      <path class="cls-21" d="M2337.67,1620.73c11.68,1.84,25.72,3.39,41.48,4.54v-40.09c-15.13-.65-29.24-1.22-41.48-1.29v36.84Z"/>
      <path class="cls-9" d="M2503.57,1585.52v40.39c51.48-3.1,87.52-10.25,87.52-18.57v-20.22c-12.48-5.8-46.12-3.52-87.52-1.6Z"/>
      <ellipse class="cls-56" cx="2446.23" cy="1587.12" rx="144.86" ry="20.22"/>
      <path class="cls-26" d="M2566.93,1583.87c-21.21-4.59-61.41-9.19-120.7-9.19s-99.49,4.6-120.7,9.19c-3.49.76-3.49,5.75,0,6.51,21.21,4.59,61.41,9.19,120.7,9.19s99.49-4.6,120.7-9.19c3.49-.76,3.49-5.75,0-6.51Z"/>
      <path class="cls-30" d="M2566.93,1583.87c-21.21-4.59-61.41-9.19-120.7-9.19s-99.49,4.6-120.7,9.19c-3.49.76-3.49,5.75,0,6.51.58.13,1.18.25,1.79.38,21.64-4.47,61.25-8.81,118.91-8.81s97.27,4.35,118.91,8.81c.61-.13,1.21-.25,1.79-.38,3.49-.76,3.49-5.75,0-6.51Z"/>
    </g>
    <g>
      <path class="cls-13" d="M2023.38,1670.12c-60.25,0-123.02-7.31-144.86,0v20.22c0,11.17,64.86,20.22,144.86,20.22s144.86-9.05,144.86-20.22v-20.22c-17.91-8.33-79.36,0-144.86,0Z"/>
      <path class="cls-21" d="M1914.81,1703.72c11.68,1.84,25.72,3.39,41.48,4.54v-40.09c-15.13-.65-29.24-1.22-41.48-1.29v36.84Z"/>
      <path class="cls-9" d="M2080.72,1668.52v40.39c51.48-3.1,87.52-10.25,87.52-18.57v-20.22c-12.48-5.8-46.11-3.52-87.52-1.6Z"/>
      <ellipse class="cls-56" cx="2023.38" cy="1670.12" rx="144.86" ry="20.22"/>
      <path class="cls-26" d="M2144.08,1666.87c-21.21-4.59-61.41-9.19-120.7-9.19s-99.49,4.6-120.7,9.19c-3.49.76-3.49,5.75,0,6.51,21.21,4.59,61.41,9.19,120.7,9.19s99.49-4.6,120.7-9.19c3.49-.76,3.49-5.75,0-6.51Z"/>
      <path class="cls-30" d="M2144.08,1666.87c-21.21-4.59-61.41-9.19-120.7-9.19s-99.49,4.6-120.7,9.19c-3.49.76-3.49,5.75,0,6.51.58.13,1.18.25,1.79.38,21.64-4.47,61.25-8.81,118.91-8.81s97.27,4.35,118.91,8.81c.61-.13,1.21-.25,1.79-.38,3.49-.76,3.49-5.75,0-6.51Z"/>
    </g>
    <g>
      <path class="cls-13" d="M2017.5,1640.07c-60.25,0-123.02-7.31-144.86,0v20.22c0,11.17,64.86,20.22,144.86,20.22s144.86-9.05,144.86-20.22v-20.22c-17.91-8.33-79.36,0-144.86,0Z"/>
      <path class="cls-21" d="M1908.94,1673.67c11.68,1.84,25.72,3.39,41.48,4.54v-40.09c-15.13-.65-29.24-1.22-41.48-1.29v36.84Z"/>
      <path class="cls-9" d="M2074.84,1638.47v40.39c51.48-3.1,87.52-10.25,87.52-18.57v-20.22c-12.48-5.8-46.12-3.52-87.52-1.6Z"/>
      <ellipse class="cls-56" cx="2017.5" cy="1640.07" rx="144.86" ry="20.22"/>
      <path class="cls-26" d="M2138.2,1636.81c-21.21-4.59-61.41-9.19-120.7-9.19s-99.49,4.6-120.7,9.19c-3.49.76-3.49,5.75,0,6.51,21.21,4.59,61.41,9.19,120.7,9.19s99.49-4.6,120.7-9.19c3.49-.76,3.49-5.75,0-6.51Z"/>
      <path class="cls-30" d="M2138.2,1636.81c-21.21-4.59-61.41-9.19-120.7-9.19s-99.49,4.6-120.7,9.19c-3.49.76-3.49,5.75,0,6.51.58.13,1.18.25,1.79.38,21.64-4.47,61.25-8.81,118.91-8.81s97.27,4.35,118.91,8.81c.61-.13,1.21-.25,1.79-.38,3.49-.76,3.49-5.75,0-6.51Z"/>
    </g>
    <g>
      <path class="cls-13" d="M2044.6,1616.18c-60.25,0-123.02-7.31-144.86,0v20.22c0,11.17,64.86,20.22,144.86,20.22s144.86-9.05,144.86-20.22v-20.22c-17.91-8.33-79.36,0-144.86,0Z"/>
      <path class="cls-21" d="M1936.03,1649.78c11.68,1.84,25.72,3.39,41.48,4.54v-40.09c-15.13-.65-29.24-1.22-41.48-1.29v36.84Z"/>
      <path class="cls-9" d="M2101.94,1614.58v40.39c51.48-3.1,87.52-10.25,87.52-18.57v-20.22c-12.48-5.8-46.12-3.52-87.52-1.6Z"/>
      <ellipse class="cls-56" cx="2044.6" cy="1616.18" rx="144.86" ry="20.22"/>
      <path class="cls-26" d="M2165.29,1612.92c-21.21-4.59-61.41-9.19-120.7-9.19s-99.49,4.6-120.7,9.19c-3.49.76-3.49,5.75,0,6.51,21.21,4.59,61.41,9.19,120.7,9.19s99.49-4.6,120.7-9.19c3.49-.76,3.49-5.75,0-6.51Z"/>
      <path class="cls-30" d="M2165.29,1612.92c-21.21-4.59-61.41-9.19-120.7-9.19s-99.49,4.6-120.7,9.19c-3.49.76-3.49,5.75,0,6.51.58.13,1.18.25,1.79.38,21.64-4.47,61.25-8.81,118.91-8.81s97.27,4.35,118.91,8.81c.61-.13,1.21-.25,1.79-.38,3.49-.76,3.49-5.75,0-6.51Z"/>
    </g>
    <g>
      <path class="cls-13" d="M2038.84,1588.97c-60.25,0-123.02-7.31-144.86,0v20.22c0,11.17,64.86,20.22,144.86,20.22s144.86-9.05,144.86-20.22v-20.22c-17.91-8.33-79.36,0-144.86,0Z"/>
      <path class="cls-21" d="M1930.27,1622.58c11.68,1.84,25.72,3.39,41.48,4.54v-40.09c-15.13-.65-29.24-1.22-41.48-1.29v36.84Z"/>
      <path class="cls-9" d="M2096.18,1587.37v40.39c51.48-3.1,87.52-10.25,87.52-18.57v-20.22c-12.48-5.8-46.11-3.52-87.52-1.6Z"/>
      <ellipse class="cls-56" cx="2038.84" cy="1588.97" rx="144.86" ry="20.22"/>
      <path class="cls-26" d="M2159.54,1585.72c-21.21-4.59-61.41-9.19-120.7-9.19s-99.49,4.6-120.7,9.19c-3.49.76-3.49,5.75,0,6.51,21.21,4.59,61.41,9.19,120.7,9.19s99.49-4.6,120.7-9.19c3.49-.76,3.49-5.75,0-6.51Z"/>
      <path class="cls-30" d="M2159.54,1585.72c-21.21-4.59-61.41-9.19-120.7-9.19s-99.49,4.6-120.7,9.19c-3.49.76-3.49,5.75,0,6.51.58.13,1.18.25,1.79.38,21.64-4.47,61.25-8.81,118.91-8.81s97.27,4.35,118.91,8.81c.61-.13,1.21-.25,1.79-.38,3.49-.76,3.49-5.75,0-6.51Z"/>
    </g>
    <g>
      <path class="cls-13" d="M2053.7,1563.8c-60.25,0-123.02-7.31-144.86,0v20.22c0,11.17,64.86,20.22,144.86,20.22s144.86-9.05,144.86-20.22v-20.22c-17.91-8.33-79.36,0-144.86,0Z"/>
      <path class="cls-21" d="M1945.14,1597.41c11.68,1.84,25.72,3.39,41.48,4.54v-40.09c-15.13-.65-29.24-1.22-41.48-1.29v36.84Z"/>
      <path class="cls-9" d="M2111.04,1562.2v40.39c51.48-3.1,87.52-10.25,87.52-18.57v-20.22c-12.48-5.8-46.12-3.52-87.52-1.6Z"/>
      <ellipse class="cls-56" cx="2053.7" cy="1563.8" rx="144.86" ry="20.22"/>
      <path class="cls-26" d="M2174.4,1560.55c-21.21-4.59-61.41-9.19-120.7-9.19s-99.49,4.6-120.7,9.19c-3.49.76-3.49,5.75,0,6.51,21.21,4.59,61.41,9.19,120.7,9.19s99.49-4.6,120.7-9.19c3.49-.76,3.49-5.75,0-6.51Z"/>
      <path class="cls-30" d="M2174.4,1560.55c-21.21-4.59-61.41-9.19-120.7-9.19s-99.49,4.6-120.7,9.19c-3.49.76-3.49,5.75,0,6.51.58.13,1.18.25,1.79.38,21.64-4.47,61.25-8.81,118.91-8.81s97.27,4.35,118.91,8.81c.61-.13,1.21-.25,1.79-.38,3.49-.76,3.49-5.75,0-6.51Z"/>
    </g>
    <g>
      <path class="cls-13" d="M2255.31,1655.89c-60.25,0-123.02-7.31-144.86,0v20.22c0,11.17,64.86,20.22,144.86,20.22s144.86-9.05,144.86-20.22v-20.22c-17.91-8.33-79.36,0-144.86,0Z"/>
      <path class="cls-21" d="M2146.75,1689.49c11.68,1.84,25.72,3.39,41.48,4.54v-40.09c-15.13-.65-29.24-1.22-41.48-1.29v36.84Z"/>
      <path class="cls-9" d="M2312.66,1654.29v40.39c51.48-3.1,87.52-10.25,87.52-18.57v-20.22c-12.48-5.8-46.12-3.52-87.52-1.6Z"/>
      <ellipse class="cls-56" cx="2255.31" cy="1655.89" rx="144.86" ry="20.22"/>
      <path class="cls-26" d="M2376.01,1652.64c-21.21-4.59-61.41-9.19-120.7-9.19s-99.49,4.6-120.7,9.19c-3.49.76-3.49,5.75,0,6.51,21.21,4.59,61.41,9.19,120.7,9.19s99.49-4.6,120.7-9.19c3.49-.76,3.49-5.75,0-6.51Z"/>
      <path class="cls-30" d="M2376.01,1652.64c-21.21-4.59-61.41-9.19-120.7-9.19s-99.49,4.6-120.7,9.19c-3.49.76-3.49,5.75,0,6.51.58.13,1.18.25,1.79.38,21.64-4.47,61.25-8.81,118.91-8.81s97.27,4.35,118.91,8.81c.61-.13,1.21-.25,1.79-.38,3.49-.76,3.49-5.75,0-6.51Z"/>
    </g>
    <g>
      <path class="cls-13" d="M2275.43,1627.86c-60.25,0-123.02-7.31-144.86,0v20.22c0,11.17,64.86,20.22,144.86,20.22s144.86-9.05,144.86-20.22v-20.22c-17.91-8.33-79.36,0-144.86,0Z"/>
      <path class="cls-21" d="M2166.87,1661.46c11.68,1.84,25.72,3.39,41.48,4.54v-40.09c-15.13-.65-29.24-1.22-41.48-1.29v36.84Z"/>
      <path class="cls-9" d="M2332.77,1626.26v40.39c51.48-3.1,87.52-10.25,87.52-18.57v-20.22c-12.48-5.8-46.12-3.52-87.52-1.6Z"/>
      <ellipse class="cls-56" cx="2275.43" cy="1627.86" rx="144.86" ry="20.22"/>
      <path class="cls-26" d="M2396.13,1624.6c-21.21-4.59-61.41-9.19-120.7-9.19s-99.49,4.6-120.7,9.19c-3.49.76-3.49,5.75,0,6.51,21.21,4.59,61.41,9.19,120.7,9.19s99.49-4.6,120.7-9.19c3.49-.76,3.49-5.75,0-6.51Z"/>
      <path class="cls-30" d="M2396.13,1624.6c-21.21-4.59-61.41-9.19-120.7-9.19s-99.49,4.6-120.7,9.19c-3.49.76-3.49,5.75,0,6.51.58.13,1.18.25,1.79.38,21.64-4.47,61.25-8.81,118.91-8.81s97.27,4.35,118.91,8.81c.61-.13,1.21-.25,1.79-.38,3.49-.76,3.49-5.75,0-6.51Z"/>
    </g>
    <g>
      <path class="cls-13" d="M2255.31,1599.82c-60.25,0-123.02-7.31-144.86,0v20.22c0,11.17,64.86,20.22,144.86,20.22s144.86-9.05,144.86-20.22v-20.22c-17.91-8.33-79.36,0-144.86,0Z"/>
      <path class="cls-21" d="M2146.75,1633.43c11.68,1.84,25.72,3.39,41.48,4.54v-40.09c-15.13-.65-29.24-1.22-41.48-1.29v36.84Z"/>
      <path class="cls-9" d="M2312.66,1598.22v40.39c51.48-3.1,87.52-10.25,87.52-18.57v-20.22c-12.48-5.8-46.12-3.52-87.52-1.6Z"/>
      <ellipse class="cls-56" cx="2255.31" cy="1599.82" rx="144.86" ry="20.22"/>
      <path class="cls-26" d="M2376.01,1596.57c-21.21-4.59-61.41-9.19-120.7-9.19s-99.49,4.6-120.7,9.19c-3.49.76-3.49,5.75,0,6.51,21.21,4.59,61.41,9.19,120.7,9.19s99.49-4.6,120.7-9.19c3.49-.76,3.49-5.75,0-6.51Z"/>
      <path class="cls-30" d="M2376.01,1596.57c-21.21-4.59-61.41-9.19-120.7-9.19s-99.49,4.6-120.7,9.19c-3.49.76-3.49,5.75,0,6.51.58.13,1.18.25,1.79.38,21.64-4.47,61.25-8.81,118.91-8.81s97.27,4.35,118.91,8.81c.61-.13,1.21-.25,1.79-.38,3.49-.76,3.49-5.75,0-6.51Z"/>
    </g>
    <g>
      <path class="cls-13" d="M2249.44,1569.77c-60.25,0-123.02-7.31-144.86,0v20.22c0,11.17,64.86,20.22,144.86,20.22s144.86-9.05,144.86-20.22v-20.22c-17.91-8.33-79.36,0-144.86,0Z"/>
      <path class="cls-21" d="M2140.87,1603.37c11.68,1.84,25.72,3.39,41.48,4.54v-40.09c-15.13-.65-29.24-1.22-41.48-1.29v36.84Z"/>
      <path class="cls-9" d="M2306.78,1568.17v40.39c51.48-3.1,87.52-10.25,87.52-18.57v-20.22c-12.48-5.8-46.12-3.52-87.52-1.6Z"/>
      <ellipse class="cls-56" cx="2249.44" cy="1569.77" rx="144.86" ry="20.22"/>
      <path class="cls-26" d="M2370.14,1566.52c-21.21-4.59-61.41-9.19-120.7-9.19s-99.49,4.6-120.7,9.19c-3.49.76-3.49,5.75,0,6.51,21.21,4.59,61.41,9.19,120.7,9.19s99.49-4.6,120.7-9.19c3.49-.76,3.49-5.75,0-6.51Z"/>
      <path class="cls-30" d="M2370.14,1566.52c-21.21-4.59-61.41-9.19-120.7-9.19s-99.49,4.6-120.7,9.19c-3.49.76-3.49,5.75,0,6.51.58.13,1.18.25,1.79.38,21.64-4.46,61.25-8.81,118.91-8.81s97.27,4.35,118.91,8.81c.61-.13,1.21-.25,1.79-.38,3.49-.76,3.49-5.75,0-6.51Z"/>
    </g>
    <g>
      <path class="cls-13" d="M2229.32,1541.74c-60.25,0-123.02-7.31-144.86,0v20.22c0,11.17,64.86,20.22,144.86,20.22s144.86-9.05,144.86-20.22v-20.22c-17.91-8.33-79.36,0-144.86,0Z"/>
      <path class="cls-21" d="M2120.76,1575.34c11.68,1.84,25.72,3.39,41.48,4.54v-40.09c-15.13-.65-29.24-1.22-41.48-1.29v36.84Z"/>
      <path class="cls-9" d="M2286.66,1540.14v40.39c51.48-3.1,87.52-10.25,87.52-18.57v-20.22c-12.48-5.8-46.12-3.52-87.52-1.6Z"/>
      <ellipse class="cls-56" cx="2229.32" cy="1541.74" rx="144.86" ry="20.22"/>
      <path class="cls-26" d="M2350.02,1538.48c-21.21-4.59-61.41-9.19-120.7-9.19s-99.49,4.6-120.7,9.19c-3.49.76-3.49,5.75,0,6.51,21.21,4.59,61.41,9.19,120.7,9.19s99.49-4.6,120.7-9.19c3.49-.76,3.49-5.75,0-6.51Z"/>
      <path class="cls-30" d="M2350.02,1538.48c-21.21-4.59-61.41-9.19-120.7-9.19s-99.49,4.6-120.7,9.19c-3.49.76-3.49,5.75,0,6.51.58.13,1.18.25,1.79.38,21.64-4.47,61.25-8.81,118.91-8.81s97.27,4.35,118.91,8.81c.61-.13,1.21-.25,1.79-.38,3.49-.76,3.49-5.75,0-6.51Z"/>
    </g>
    <g>
      <path class="cls-13" d="M2245.05,1512.74c-60.25,0-123.02-7.31-144.86,0v20.22c0,11.17,64.86,20.22,144.86,20.22s144.86-9.05,144.86-20.22v-20.22c-17.91-8.33-79.36,0-144.86,0Z"/>
      <path class="cls-21" d="M2136.49,1546.34c11.68,1.84,25.72,3.39,41.48,4.54v-40.09c-15.13-.65-29.24-1.22-41.48-1.29v36.84Z"/>
      <path class="cls-9" d="M2302.4,1511.14v40.39c51.48-3.1,87.52-10.25,87.52-18.57v-20.22c-12.48-5.8-46.12-3.52-87.52-1.6Z"/>
      <ellipse class="cls-56" cx="2245.05" cy="1512.74" rx="144.86" ry="20.22"/>
      <path class="cls-26" d="M2365.75,1509.48c-21.21-4.59-61.41-9.19-120.7-9.19s-99.49,4.6-120.7,9.19c-3.49.76-3.49,5.75,0,6.51,21.21,4.59,61.41,9.19,120.7,9.19s99.49-4.6,120.7-9.19c3.49-.76,3.49-5.75,0-6.51Z"/>
      <path class="cls-30" d="M2365.75,1509.48c-21.21-4.59-61.41-9.19-120.7-9.19s-99.49,4.6-120.7,9.19c-3.49.76-3.49,5.75,0,6.51.58.13,1.18.25,1.79.38,21.64-4.47,61.25-8.81,118.91-8.81s97.27,4.35,118.91,8.81c.61-.13,1.21-.25,1.79-.38,3.49-.76,3.49-5.75,0-6.51Z"/>
    </g>
    <g>
      <path class="cls-13" d="M2239.18,1482.68c-60.25,0-123.02-7.31-144.86,0v20.22c0,11.17,64.86,20.22,144.86,20.22s144.86-9.05,144.86-20.22v-20.22c-17.91-8.33-79.36,0-144.86,0Z"/>
      <path class="cls-21" d="M2130.61,1516.29c11.68,1.84,25.72,3.39,41.48,4.54v-40.09c-15.13-.65-29.24-1.22-41.48-1.29v36.84Z"/>
      <path class="cls-9" d="M2296.52,1481.08v40.39c51.48-3.1,87.52-10.25,87.52-18.57v-20.22c-12.48-5.8-46.12-3.52-87.52-1.6Z"/>
      <ellipse class="cls-56" cx="2239.18" cy="1482.68" rx="144.86" ry="20.22"/>
      <path class="cls-26" d="M2359.88,1479.43c-21.21-4.59-61.41-9.19-120.7-9.19s-99.49,4.6-120.7,9.19c-3.49.76-3.49,5.75,0,6.51,21.21,4.59,61.41,9.19,120.7,9.19s99.49-4.6,120.7-9.19c3.49-.76,3.49-5.75,0-6.51Z"/>
      <path class="cls-30" d="M2359.88,1479.43c-21.21-4.59-61.41-9.19-120.7-9.19s-99.49,4.6-120.7,9.19c-3.49.76-3.49,5.75,0,6.51.58.13,1.18.25,1.79.38,21.64-4.47,61.25-8.81,118.91-8.81s97.27,4.35,118.91,8.81c.61-.13,1.21-.25,1.79-.38,3.49-.76,3.49-5.75,0-6.51Z"/>
    </g>
    <g>
      <path class="cls-13" d="M2219.06,1454.65c-60.25,0-123.02-7.31-144.86,0v20.22c0,11.17,64.86,20.22,144.86,20.22s144.86-9.05,144.86-20.22v-20.22c-17.91-8.33-79.36,0-144.86,0Z"/>
      <path class="cls-21" d="M2110.5,1488.25c11.68,1.84,25.72,3.39,41.48,4.54v-40.09c-15.13-.65-29.24-1.22-41.48-1.29v36.84Z"/>
      <path class="cls-9" d="M2276.4,1453.05v40.39c51.48-3.1,87.52-10.25,87.52-18.57v-20.22c-12.48-5.8-46.11-3.52-87.52-1.6Z"/>
      <path class="cls-56" d="M2219.06,1434.43c-80,0-144.86,9.05-144.86,20.22s64.86,20.22,144.86,20.22,144.86-9.05,144.86-20.22-64.86-20.22-144.86-20.22Z"/>
      <path class="cls-26" d="M2339.76,1451.4c-21.21-4.59-61.41-9.19-120.7-9.19s-99.49,4.6-120.7,9.19c-3.49.76-3.49,5.75,0,6.51,21.21,4.59,61.41,9.19,120.7,9.19s99.49-4.6,120.7-9.19c3.49-.76,3.49-5.75,0-6.51Z"/>
      <path class="cls-30" d="M2339.76,1451.4c-21.21-4.59-61.41-9.19-120.7-9.19s-99.49,4.6-120.7,9.19c-3.49.76-3.49,5.75,0,6.51.58.13,1.18.25,1.79.38,21.64-4.47,61.25-8.81,118.91-8.81s97.27,4.35,118.91,8.81c.61-.13,1.21-.25,1.79-.38,3.49-.76,3.49-5.75,0-6.51Z"/>
    </g>
  </g>
  <g>
    <g>
      <circle class="cls-56" cx="2234.66" cy="1298.96" r="162.12" transform="translate(-263.99 1960.6) rotate(-45)"/>
      <circle class="cls-26" cx="2234.66" cy="1298.96" r="137.23" transform="translate(-263.99 1960.6) rotate(-45)"/>
      <path class="cls-61" d="M2284.76,1171.21c24.39,24.77,39.46,58.75,39.46,96.26,0,75.79-61.44,137.23-137.23,137.23-17.68,0-34.57-3.38-50.09-9.47,24.89,25.28,59.49,40.97,97.77,40.97,75.79,0,137.23-61.44,137.23-137.23,0-58.11-36.13-107.74-87.14-127.76Z"/>
      <path class="cls-33" d="M2098.44,1282.56l98.09-115.42c-52.15,15.06-91.51,60.19-98.09,115.42Z"/>
      <path class="cls-33" d="M2242.84,1161.99l-142.03,167.14c2.24,9.98,5.54,19.55,9.83,28.58l161.99-190.62c-9.55-2.74-19.51-4.49-29.79-5.1Z"/>
      <path class="cls-39" d="M2285.58,1303.84c-2.2-5.02-5.34-9.34-9.41-12.95-3.81-3.48-8.13-6.14-12.95-7.98-4.83-1.84-11.31-3.87-19.46-6.11v-40.98c8.27,2.69,13.5,8.15,15.66,16.35,1.9,6.96,6.07,10.44,12.51,10.44,3.41,0,6.32-1.2,8.72-3.6,2.4-2.4,3.6-5.24,3.6-8.52,0-2.96-.8-6.21-2.41-9.75-1.61-3.55-3.89-6.99-6.85-10.34-3.74-4.4-8.13-7.68-13.15-9.85-5.02-2.17-11.05-3.61-18.08-4.33v-10.64c0-5.39-2.1-8.08-6.3-8.08s-6.21,2.76-6.21,8.27v10.44c-13.59,1.18-23.99,5.39-31.18,12.61-7.19,7.22-10.79,16.48-10.79,27.78,0,8.67,1.84,15.76,5.52,21.28,3.68,5.52,8.47,9.77,14.38,12.76,5.91,2.99,13.26,5.7,22.07,8.13v45.8c-4.4-1.24-7.93-3.05-10.59-5.42-2.66-2.36-4.65-4.97-5.96-7.83-1.32-2.86-2.86-6.98-4.63-12.36-.79-2.5-2.2-4.43-4.24-5.81-2.04-1.38-4.53-2.07-7.49-2.07-3.68,0-6.75,1.26-9.21,3.79-2.46,2.53-3.69,5.37-3.69,8.52,0,4.27.92,8.62,2.76,13.05,1.84,4.43,4.68,8.7,8.52,12.8,3.84,4.1,8.64,7.54,14.38,10.29,5.75,2.76,12.46,4.56,20.15,5.42v26.6c0,3.02.48,5.25,1.43,6.7.95,1.44,2.61,2.17,4.97,2.17,2.56,0,4.22-.89,4.97-2.66.75-1.77,1.13-4.6,1.13-8.47v-24.53c9.39-.79,17.5-3.25,24.33-7.39,6.83-4.14,12-9.47,15.52-16.01,3.51-6.53,5.27-13.54,5.27-21.03,0-5.98-1.1-11.48-3.3-16.5ZM2231.26,1273.15c-5.91-2.17-10.31-4.58-13.2-7.24-2.89-2.66-4.33-6.58-4.33-11.77,0-5.45,1.54-9.52,4.63-12.21,3.09-2.69,7.39-4.86,12.9-6.5v37.73ZM2259.14,1337.58c-3.61,4.01-8.74,6.67-15.37,7.98v-43.15c6.83,2.17,12,4.81,15.51,7.93,3.51,3.12,5.27,7.54,5.27,13.25,0,5.32-1.81,9.98-5.42,13.99Z"/>
      <path class="cls-4" d="M2285.58,1311.76c-2.2-5.02-5.34-9.34-9.41-12.95-3.81-3.48-8.13-6.14-12.95-7.98-4.83-1.84-11.31-3.87-19.46-6.11v-40.98c8.27,2.7,13.5,8.15,15.66,16.35,1.9,6.96,6.07,10.44,12.51,10.44,3.41,0,6.32-1.2,8.72-3.6,2.4-2.4,3.6-5.24,3.6-8.52,0-2.96-.8-6.21-2.41-9.75-1.61-3.55-3.89-6.99-6.85-10.34-3.74-4.4-8.13-7.68-13.15-9.85-5.02-2.17-11.05-3.61-18.08-4.33v-10.64c0-5.38-2.1-8.08-6.3-8.08s-6.21,2.76-6.21,8.27v10.44c-13.59,1.18-23.99,5.39-31.18,12.61-7.19,7.22-10.79,16.48-10.79,27.78,0,8.67,1.84,15.76,5.52,21.28,3.68,5.52,8.47,9.77,14.38,12.76,5.91,2.99,13.26,5.7,22.07,8.13v45.81c-4.4-1.25-7.93-3.05-10.59-5.42-2.66-2.36-4.65-4.97-5.96-7.83-1.32-2.86-2.86-6.98-4.63-12.36-.79-2.5-2.2-4.43-4.24-5.81-2.04-1.38-4.53-2.07-7.49-2.07-3.68,0-6.75,1.26-9.21,3.79-2.46,2.53-3.69,5.37-3.69,8.52,0,4.27.92,8.62,2.76,13.05,1.84,4.43,4.68,8.7,8.52,12.81,3.84,4.1,8.64,7.54,14.38,10.29,5.75,2.76,12.46,4.56,20.15,5.42v26.6c0,3.02.48,5.25,1.43,6.7.95,1.44,2.61,2.17,4.97,2.17,2.56,0,4.22-.89,4.97-2.66.75-1.77,1.13-4.6,1.13-8.47v-24.53c9.39-.79,17.5-3.25,24.33-7.39,6.83-4.14,12-9.47,15.52-16.01,3.51-6.53,5.27-13.54,5.27-21.03,0-5.98-1.1-11.48-3.3-16.5ZM2231.26,1281.07c-5.91-2.17-10.31-4.58-13.2-7.24-2.89-2.66-4.33-6.58-4.33-11.77,0-5.45,1.54-9.52,4.63-12.21,3.09-2.69,7.39-4.86,12.9-6.5v37.73ZM2259.14,1345.5c-3.61,4.01-8.74,6.67-15.37,7.98v-43.15c6.83,2.17,12,4.81,15.51,7.93,3.51,3.12,5.27,7.54,5.27,13.25,0,5.32-1.81,9.98-5.42,13.99Z"/>
      <path class="cls-43" d="M2234.66,1161.73c-75.79,0-137.23,61.44-137.23,137.23s61.44,137.23,137.23,137.23,137.23-61.44,137.23-137.23-61.44-137.23-137.23-137.23ZM2234.66,1425.84c-70.07,0-126.87-56.8-126.87-126.87s56.8-126.88,126.87-126.88,126.88,56.8,126.88,126.88-56.8,126.87-126.88,126.87Z"/>
      <path class="cls-56" d="M2285.58,1303.84c-2.2-5.02-5.34-9.34-9.41-12.95-3.81-3.48-8.13-6.14-12.95-7.98-4.83-1.84-11.31-3.87-19.46-6.11v-40.98c8.27,2.69,13.5,8.15,15.66,16.35,1.9,6.96,6.07,10.44,12.51,10.44,3.41,0,6.32-1.2,8.72-3.6,2.4-2.4,3.6-5.24,3.6-8.52,0-2.96-.8-6.21-2.41-9.75-1.61-3.55-3.89-6.99-6.85-10.34-3.74-4.4-8.13-7.68-13.15-9.85-5.02-2.17-11.05-3.61-18.08-4.33v-10.64c0-5.39-2.1-8.08-6.3-8.08s-6.21,2.76-6.21,8.27v10.44c-13.59,1.18-23.99,5.39-31.18,12.61-7.19,7.22-10.79,16.48-10.79,27.78,0,8.67,1.84,15.76,5.52,21.28,3.68,5.52,8.47,9.77,14.38,12.76,5.91,2.99,13.26,5.7,22.07,8.13v45.8c-4.4-1.24-7.93-3.05-10.59-5.42-2.66-2.36-4.65-4.97-5.96-7.83-1.32-2.86-2.86-6.98-4.63-12.36-.79-2.5-2.2-4.43-4.24-5.81-2.04-1.38-4.53-2.07-7.49-2.07-3.68,0-6.75,1.26-9.21,3.79-2.46,2.53-3.69,5.37-3.69,8.52,0,4.27.92,8.62,2.76,13.05,1.84,4.43,4.68,8.7,8.52,12.8,3.84,4.1,8.64,7.54,14.38,10.29,5.75,2.76,12.46,4.56,20.15,5.42v26.6c0,3.02.48,5.25,1.43,6.7.95,1.44,2.61,2.17,4.97,2.17,2.56,0,4.22-.89,4.97-2.66.75-1.77,1.13-4.6,1.13-8.47v-24.53c9.39-.79,17.5-3.25,24.33-7.39,6.83-4.14,12-9.47,15.52-16.01,3.51-6.53,5.27-13.54,5.27-21.03,0-5.98-1.1-11.48-3.3-16.5ZM2231.26,1273.15c-5.91-2.17-10.31-4.58-13.2-7.24-2.89-2.66-4.33-6.58-4.33-11.77,0-5.45,1.54-9.52,4.63-12.21,3.09-2.69,7.39-4.86,12.9-6.5v37.73ZM2259.14,1337.58c-3.61,4.01-8.74,6.67-15.37,7.98v-43.15c6.83,2.17,12,4.81,15.51,7.93,3.51,3.12,5.27,7.54,5.27,13.25,0,5.32-1.81,9.98-5.42,13.99Z"/>
    </g>
    <path class="cls-17" d="M2160.58,1167.2s-24.14,11.88-30.33,10.58c-7.55-1.58-24.63-22.08-24.63-22.08,0,0,9.15,23.37,7.85,29.58-1.57,7.53-19.35,25.38-19.35,25.38,0,0,22.14-9.41,29.67-7.84,6.21,1.3,25.29,19.33,25.29,19.33,0,0-9.66-22.17-8.15-29.38,1.36-6.52,19.65-25.57,19.65-25.57Z"/>
  </g>
</svg>